<?xml version="1.0" encoding="utf-8"?>
<!-- Generator: Adobe Illustrator 19.0.0, SVG Export Plug-In . SVG Version: 6.00 Build 0)  -->
<svg version="1.1" id="Layer_1" xmlns="http://www.w3.org/2000/svg" xmlns:xlink="http://www.w3.org/1999/xlink" x="0px" y="0px"
	 viewBox="-499 211 140 140" style="enable-background:new -499 211 140 140;" xml:space="preserve">
<style type="text/css">
	.st0{fill:#005A94;}
	.st1{fill:#FFFFFF;}
	.st2{fill:none;stroke:#FFFFFF;stroke-width:3;stroke-miterlimit:10;}
</style>
<rect x="-499" y="211" class="st0" width="140" height="140"/>
<title>AWS-Lambda_Lambda-Function_light-bg</title>
<circle class="st1" cx="-428.7" cy="229.8" r="5.3"/>
<circle class="st2" cx="-428.7" cy="229.8" r="10.4"/>
<path class="st2" d="M-402.1,229.8c0,0-12,12.3-26.6,12.3s-26.6-12.3-26.6-12.3s12-12.3,26.6-12.3S-402.1,229.8-402.1,229.8z"/>
<circle class="st0" cx="-425.4" cy="226.1" r="2.8"/>
<path class="st1" d="M-389.5,347.6h-78.7c-1.7,0-2.8-1.1-2.8-2.8v-94.6c0-1.7,1.1-2.8,2.8-2.8h18.2h42.3h18.2c1.7,0,2.8,1.1,2.8,2.8
	v94.6C-386.7,346.2-388.1,347.6-389.5,347.6z M-465.7,342h73.1v-89h-73.1V342z"/>
<rect x="-450.3" y="258" class="st1" width="5.6" height="13.2"/>
<rect x="-450.3" y="279" class="st1" width="5.6" height="13.2"/>
<rect x="-450.3" y="300" class="st1" width="5.6" height="13.2"/>
<rect x="-450.3" y="321" class="st1" width="5.6" height="15.7"/>
<rect x="-460.6" y="258" class="st1" width="5.6" height="13.2"/>
<rect x="-460.6" y="279" class="st1" width="5.6" height="13.2"/>
<rect x="-460.6" y="300" class="st1" width="5.6" height="13.2"/>
<rect x="-460.6" y="321" class="st1" width="5.6" height="15.7"/>
<rect x="-437.1" y="258" class="st1" width="5.6" height="13.2"/>
<rect x="-437.1" y="279" class="st1" width="5.6" height="13.2"/>
<rect x="-437.1" y="300" class="st1" width="5.6" height="13.2"/>
<rect x="-437.1" y="321" class="st1" width="5.6" height="15.7"/>
<rect x="-426.5" y="258" class="st1" width="5.6" height="13.2"/>
<rect x="-426.5" y="279" class="st1" width="5.6" height="13.2"/>
<rect x="-426.5" y="300" class="st1" width="5.6" height="13.2"/>
<rect x="-426.5" y="321" class="st1" width="5.6" height="15.7"/>
<rect x="-413.3" y="258" class="st1" width="5.6" height="13.2"/>
<rect x="-413.3" y="279" class="st1" width="5.6" height="13.2"/>
<rect x="-413.3" y="300" class="st1" width="5.6" height="13.2"/>
<rect x="-413.3" y="321" class="st1" width="5.6" height="15.7"/>
<rect x="-403" y="258" class="st1" width="5.6" height="13.2"/>
<rect x="-403" y="279" class="st1" width="5.6" height="13.2"/>
<rect x="-403" y="300" class="st1" width="5.6" height="13.2"/>
<rect x="-403" y="321" class="st1" width="5.6" height="15.7"/>
</svg>
