<?xml version="1.0" encoding="utf-8"?>
<!-- Generator: Adobe Illustrator 19.0.0, SVG Export Plug-In . SVG Version: 6.00 Build 0)  -->
<svg version="1.1" id="Capa_1" xmlns="http://www.w3.org/2000/svg" xmlns:xlink="http://www.w3.org/1999/xlink" x="0px" y="0px"
	 viewBox="-139 51 512 512" style="enable-background:new -139 51 512 512;" xml:space="preserve">
<style type="text/css">
	.st0{fill:#FFFFFF;}
</style>
	<g class="st0">
		<path d="M302,85H-68c-20.4,0-37,16.6-37,37v370c0,20.4,16.6,37,37,37h370c20.4,0,37-16.6,37-37V122C339,101.6,322.4,85,302,85z
			 M324.2,492c0,12.3-9.9,22.2-22.2,22.2H-68c-12.3,0-22.2-9.9-22.2-22.2V159h414.4L324.2,492L324.2,492z M324.2,144.2H-90.2V122
			c0-12.3,9.9-22.2,22.2-22.2h370c12.3,0,22.2,9.9,22.2,22.2L324.2,144.2L324.2,144.2z"/>
		<path d="M-53.2,114.6h-7.4c-4.1,0-7.4,3.3-7.4,7.4c0,4.1,3.3,7.4,7.4,7.4h7.4c4.1,0,7.4-3.3,7.4-7.4
			C-45.8,117.9-49.1,114.6-53.2,114.6z"/>
		<path d="M-20.8,115.2c-1.8-0.8-3.8-0.8-5.6,0c-0.9,0.4-1.7,0.9-2.4,1.6c-2.9,2.9-2.9,7.6,0,10.5c0.7,0.7,1.5,1.2,2.4,1.6
			c1.8,0.8,3.8,0.8,5.6,0c0.9-0.4,1.7-0.9,2.4-1.6c2.9-2.9,2.9-7.6,0-10.5C-19.1,116.1-19.9,115.6-20.8,115.2z"/>
		<path d="M8.8,115.1c-2.8-1.2-6-0.5-8.1,1.6c-0.7,0.7-1.2,1.5-1.6,2.4c-0.8,1.8-0.8,3.8,0,5.6c0.4,0.9,0.9,1.7,1.6,2.4
			c2.9,2.9,7.6,2.9,10.5,0c0.7-0.7,1.2-1.5,1.6-2.4c0.4-0.9,0.6-1.8,0.6-2.8C13.4,119,11.6,116.3,8.8,115.1z"/>
		<path d="M294.6,114.6H43c-4.1,0-7.4,3.3-7.4,7.4c0,4.1,3.3,7.4,7.4,7.4h251.6c4.1,0,7.4-3.3,7.4-7.4
			C302,117.9,298.7,114.6,294.6,114.6z"/>
		<path d="M8.6,437.4c0.3,0.3,0.7,0.6,1.1,0.8c27.9,29.6,66.7,46.4,107.4,46.4s79.5-16.8,107.3-46.5c0.4-0.2,0.7-0.5,1-0.7
			c0.2-0.3,0.5-0.7,0.6-1.1c51.9-56.3,51.9-143.1,0-199.4l0,0c-0.2-0.4-0.4-0.7-0.6-1.1c-0.3-0.3-0.7-0.6-1.1-0.8
			c-27.8-29.6-66.7-46.4-107.3-46.4S37.6,205.4,9.7,235c-0.4,0.2-0.8,0.5-1.1,0.8c-0.2,0.3-0.5,0.7-0.6,1.1
			C-44,293.2-44,380,8,436.3C8.2,436.7,8.4,437,8.6,437.4z M157.4,463.5c11.4-13.7,19.9-29.6,25.2-46.6v0
			c9.3,4.4,18.1,9.8,26.1,16.1C194.1,446.9,176.6,457.3,157.4,463.5z M218.9,422.2c-9.8-7.9-20.7-14.5-32.2-19.7
			c4.8-19.1,7.4-38.7,7.7-58.5h55.3C248.3,372.7,237.4,400.2,218.9,422.2z M249.8,329.2h-55.3c-0.4-19.7-3-39.3-7.7-58.5
			c11.5-5.2,22.3-11.8,32.2-19.7C237.4,273,248.3,300.5,249.8,329.2z M208.7,240.2c-8.1,6.3-16.8,11.7-26.1,16.1
			c-5.3-17-13.8-32.9-25.2-46.6C176.6,215.9,194.1,226.3,208.7,240.2z M124.4,204.4c18.1,4.8,34.2,26.6,44.3,57.4
			c-14.3,4.9-29.2,7.8-44.3,8.4V204.4z M124.4,285.1c16.5-0.6,32.8-3.6,48.4-8.9c4.2,17.4,6.5,35.1,6.9,53h-55.3V285.1z M124.4,344
			h55.3c-0.4,17.9-2.8,35.6-6.9,53c-15.6-5.3-31.9-8.3-48.4-8.9V344z M124.4,402.9c15.1,0.7,30,3.5,44.3,8.4
			c-10.1,30.9-26.2,52.7-44.3,57.4V402.9z M25.3,432.9c8.1-6.3,16.9-11.7,26.1-16v0c5.3,17,13.8,32.9,25.2,46.6
			C57.4,457.3,39.9,446.9,25.3,432.9z M109.6,468.8c-18.1-4.8-34.2-26.6-44.3-57.4c14.3-4.9,29.2-7.8,44.3-8.4L109.6,468.8
			L109.6,468.8z M109.6,388.1c-16.5,0.6-32.8,3.6-48.4,8.9c-4.2-17.4-6.5-35.1-6.9-53h55.3V388.1z M109.6,329.2H54.3
			c0.4-17.9,2.8-35.6,6.9-53c15.6,5.3,31.9,8.3,48.4,8.9V329.2z M109.6,204.4v65.9c-15.1-0.7-30-3.5-44.3-8.4
			C75.4,231,91.5,209.2,109.6,204.4z M76.6,209.7c-11.4,13.8-19.9,29.6-25.2,46.7v0c-9.3-4.4-18.1-9.8-26.1-16.1
			C39.9,226.3,57.4,215.8,76.6,209.7z M15.1,251c9.8,7.9,20.7,14.5,32.2,19.7c-4.8,19.1-7.4,38.7-7.7,58.5h-55.3
			C-14.3,300.5-3.4,273,15.1,251z M39.5,344c0.4,19.7,3,39.3,7.7,58.5c-11.5,5.2-22.3,11.8-32.2,19.7c-18.5-22-29.4-49.4-30.9-78.2
			L39.5,344L39.5,344z"/>
	</g>
</svg>
