<svg width="512" height="512" xmlns="http://www.w3.org/2000/svg">
 <g>
  <title>background</title>
  <rect x="-1" y="-1" width="514" height="514" id="canvas_background" fill="#3e603e"/>
 </g>

 <g>
  <title>Layer 1</title>
  <g id="svg_1">
   <g id="svg_2">
    <path fill="#ffffff" d="m192.6,198.3c-3.6,0 -6.6,2.9 -6.6,6.6l0,11.5c0,3.6 2.9,6.6 6.6,6.6s6.6,-2.9 6.6,-6.6l0,-11.5c0,-3.7 -3,-6.6 -6.6,-6.6z" id="svg_3"/>
   </g>
  </g>
  <g id="svg_4">
   <g id="svg_5">
    <path fill="#ffffff" d="m319.4,198.3c-3.6,0 -6.6,2.9 -6.6,6.6l0,11.5c0,3.6 2.9,6.6 6.6,6.6c3.6,0 6.6,-2.9 6.6,-6.6l0,-11.5c-0.1,-3.7 -3,-6.6 -6.6,-6.6z" id="svg_6"/>
   </g>
  </g>
  <g id="svg_7">
   <g id="svg_8">
    <path fill="#ffffff" d="m275.9,210.6c-2.7,-2.4 -6.9,-2.1 -9.2,0.6c-2.6,3 -6.5,4.7 -10.7,4.7s-8.1,-1.7 -10.7,-4.7c-2.4,-2.7 -6.5,-3 -9.2,-0.6c-2.7,2.4 -3,6.5 -0.6,9.2c5.1,5.8 12.6,9.2 20.6,9.2s15.5,-3.3 20.6,-9.2c2.2,-2.7 2,-6.8 -0.8,-9.2z" id="svg_9"/>
   </g>
  </g>
  <g id="svg_10">
   <g id="svg_11">
    <circle fill="#ffffff" cx="321.9" cy="88" r="10.8" id="svg_12"/>
   </g>
  </g>
  <g id="svg_13">
   <g id="svg_14">
    <path fill="#ffffff" d="m451.4,199.4c-8.1,-8.6 -19.5,-13.5 -31.2,-13.5c-11,0 -21.4,4.1 -29.4,11.6c-2.6,2.5 -5.3,4.9 -8,7.3l0.4,-3.8c1.9,-20.2 -1,-40.3 -8,-58.7l9.1,-3.8c3.3,-1.4 4.9,-5.2 3.5,-8.6c-1.4,-3.3 -5.2,-4.9 -8.6,-3.5l-9.3,3.9c-4.1,-8.2 -9.1,-15.9 -15,-23.1c0.6,-0.9 1.2,-1.8 1.7,-2.8c3.2,-6.2 3.1,-13.7 -0.3,-19.8c-0.9,-1.6 -1.2,-3.6 -0.9,-5.4c1.2,-6.2 -0.5,-12.6 -4.5,-17.5c-4.1,-4.9 -10,-7.7 -16.3,-7.7c-3.2,0 -6.3,1.2 -9.3,-0.5c-3.1,-1.7 -6.6,-2.6 -10.1,-2.6c-9.6,0 -17.8,6.4 -20.4,15.4c-10.4,-3.3 -21.2,-5.2 -32.1,-5.8l0,-8.7c0,-3.6 -2.9,-6.6 -6.6,-6.6c-3.6,0 -6.6,2.9 -6.6,6.6l0,8.7c-19.8,1 -38.7,6.4 -55.8,16l-4.9,-8.1c-1.9,-3.1 -5.9,-4.1 -9,-2.2s-4.1,5.9 -2.2,9l5,8.3c-1.6,1.2 -3.3,2.4 -4.9,3.6c-14.8,11.5 -27,26.3 -35.5,43.1l-9.3,-3.9c-3.3,-1.4 -7.2,0.2 -8.6,3.5c-1.4,3.3 0.2,7.2 3.5,8.6l9,3.8c-7.1,18.6 -9.8,38.8 -8,58.7l0.4,3.8c-2.7,-2.4 -5.4,-4.8 -8,-7.3c-8,-7.5 -18.4,-11.6 -29.4,-11.6c-11.8,0 -23.2,4.9 -31.2,13.5c-16.2,17.2 -15.4,44.4 1.9,60.6c31.1,29.2 58.6,46.3 77.2,55.8l1.1,12.2l-3.6,0c-11.2,0 -20.3,9.1 -20.3,20.3l0,21.7c0,9.3 6.2,17.1 14.7,19.5l13.6,69.9c3.7,19.2 20.7,33.1 40.2,33.1l141,0c19.6,0 36.5,-13.9 40.2,-33.1l13.6,-69.9c8.5,-2.4 14.7,-10.3 14.7,-19.5l0,-21.7c0,-11.2 -9.1,-20.3 -20.3,-20.3l-3.6,0l1.1,-12.2c18.6,-9.5 46.1,-26.6 77.2,-55.8c8.3,-7.8 13.1,-18.5 13.5,-29.9c0.5,-11.4 -3.6,-22.3 -11.4,-30.6zm-379.9,51.1c-12,-11.2 -12.5,-30.1 -1.3,-42.1c5.7,-6 13.4,-9.4 21.7,-9.4c7.6,0 14.9,2.9 20.4,8.1c6.1,5.7 12.4,11.2 18.7,16.3l7.2,76.8c-17.3,-9.6 -40.7,-25.3 -66.7,-49.7zm229,-166.6c3.5,-3.3 5.8,-7.9 6.5,-12.7c0.6,-4.6 4.6,-7.1 8.1,-7.1c1.3,0 2.7,0.3 3.9,1c4.3,2.3 9.3,3.1 14.1,2.2c5.5,-1 10.5,4 9.5,9.5c-0.9,4.8 -0.1,9.8 2.2,14.1c1.3,2.4 1.3,5.2 0.1,7.6c-1.2,2.3 -3.5,4 -6.1,4.4c-4.9,0.7 -9.4,2.9 -12.8,6.5c-2.9,3.1 -7.9,3.4 -11.2,0.6c-1.4,-1.2 -2.1,-2.8 -2.9,-4.3c-2.1,-3.6 -5.4,-6.6 -9.2,-8.5c-2.5,-1.2 -4.1,-3.4 -4.5,-6.1c-0.5,-2.7 0.4,-5.4 2.3,-7.2zm74.3,257.3c4,0 7.2,3.2 7.2,7.2l0,21.7c0,4 -3.2,7.2 -7.2,7.2l-45.7,0c-3.6,0 -6.6,2.9 -6.6,6.6s2.9,6.6 6.6,6.6l37.8,0l-13,66.7c-2.5,13.1 -14.1,22.5 -27.4,22.5l-141,0c-13.3,0 -24.8,-9.5 -27.4,-22.5l-13,-66.7l157.8,0c3.6,0 6.6,-2.9 6.6,-6.6s-2.9,-6.6 -6.6,-6.6l-165.7,0c-4,0 -7.2,-3.2 -7.2,-7.2l0,-21.7c0,-4 3.2,-7.2 7.2,-7.2l52.2,0c3.6,0 6.6,-2.9 6.6,-6.6c0,-3.6 -2.9,-6.6 -6.6,-6.6l-35.4,0c0,0 -1.6,-17.1 -1.6,-17.1l-8.5,-90.6l-1.9,-20.7c-1.7,-17.8 0.8,-35.8 7,-52.5l6.7,2.8c3.3,1.4 7.2,-0.2 8.6,-3.5c1.4,-3.3 -0.2,-7.2 -3.5,-8.6l-6.4,-2.7c7.6,-14.8 18.3,-27.7 31.3,-37.8c1.2,-0.9 2.4,-1.8 3.7,-2.7c0,0 3.8,6.3 3.8,6.3c1.9,3.1 6,4.1 9,2.2c3.1,-1.9 4.1,-5.9 2.2,-9l-3.9,-6.5c15,-8.3 31.6,-13.1 49,-14.1l0,8.3c0,3.6 2.9,6.6 6.6,6.6c3.6,0 6.6,-2.9 6.6,-6.6l0,-8.3c8.8,0.5 17.4,2 25.8,4.4c0,0 0,0 0,0.1c-2.8,4.3 -4,9.8 -3.2,14.9c1.1,6.9 5.5,12.9 11.9,15.9c1.7,0.8 3.1,2.2 3.9,3.9c3.3,6.9 10.4,11.7 18.1,12.1c6.1,0.3 12.3,-2.1 16.5,-6.6c0,0 0,0 0,0c1.2,-1.3 3,-2.2 4.9,-2.5c1.3,-0.2 2.7,-0.5 3.9,-0.9c5.2,6.3 9.7,13.2 13.4,20.4l-6.4,2.7c-3.3,1.4 -4.9,5.2 -3.5,8.6c1.4,3.3 5.3,4.9 8.6,3.5l6.7,-2.8c6.2,16.5 8.7,34.4 7.1,52.4l-1.8,19.7c0,0 -8.6,91.6 -8.6,91.6l-1.6,17.1l-142.9,0c-3.6,0 -6.6,2.9 -6.6,6.6s2.9,6.6 6.6,6.6l159.3,0l0,0zm75.1,-111.5c-0.2,8 -3.6,15.3 -9.4,20.8c-26,24.5 -49.4,40.1 -66.7,49.7l7.2,-76.8c6.3,-5.1 12.6,-10.6 18.7,-16.3c5.5,-5.2 12.8,-8.1 20.4,-8.1c8.3,0 16,3.3 21.7,9.4c5.5,5.8 8.3,13.3 8.1,21.3z" id="svg_15"/>
   </g>
  </g>
 </g>
</svg>