<?xml version="1.0" encoding="utf-8"?>
<!-- Generator: Adobe Illustrator 19.0.0, SVG Export Plug-In . SVG Version: 6.00 Build 0)  -->
<svg version="1.1" id="Layer_1" xmlns="http://www.w3.org/2000/svg" xmlns:xlink="http://www.w3.org/1999/xlink" x="0px" y="0px"
	 viewBox="-499 211 140 140" style="enable-background:new -499 211 140 140;" xml:space="preserve">
<style type="text/css">
	.st0{fill:#C93900;}
	.st1{fill:none;stroke:#FFFFFF;stroke-width:3;stroke-miterlimit:10;}
	.st2{fill:none;stroke:#FFFFFF;stroke-width:2;stroke-miterlimit:10;}
	.st3{fill:#D86613;}
</style>
<rect x="-499" y="211" class="st0" width="140" height="140"/>
<title>AWS-Lambda_Lambda-Function_light-bg</title>
<path class="st1" d="M-413.9,225.3l-70.6,70.6c-1.4,1.4-1.4,3.4,0,4.8l11.8,11.8c0.6,0.6,1.4,0.8,2.2,0.8h4.5h16.2
	c0.8,0,2-0.3,2.5-0.8l60.2-60.2c1.4-1.4,1.4-3.4,0-4.8l-22.4-22.4C-410.5,223.9-412.8,223.9-413.9,225.3z"/>
<line class="st2" x1="-413.6" y1="232.3" x2="-404.1" y2="241.8"/>
<line class="st2" x1="-418.9" y1="237.9" x2="-409.7" y2="247.1"/>
<line class="st2" x1="-425.1" y1="243.8" x2="-415.6" y2="253"/>
<path class="st2" d="M-479.1,307.3l-5.9,5.9c-0.6,0.6-0.6,1.7,0,2.5l10.9,10.9c0.6,0.6,1.7,0.6,2.5,0l12.3-12.3"/>
<path class="st2" d="M-456.7,312.6l6.7,6.7c2.8,2.8,7,2.8,9.5,0.3l56.6-56.6c1.1-1.1,1.1-3.1-0.3-4.5l-4.2-4.2"/>
<path class="st3" d="M-456.7,282.7"/>
<path class="st2" d="M-399,278.8c2.2,3.1,3.6,7,3.6,11.5c0,10.9-9,19.6-19.6,19.6c-4.2,0-8.4-1.4-11.5-3.6"/>
<polyline class="st2" points="-396.2,295.8 -368.8,317.7 -369.4,341.2 -401.6,304.5 "/>
</svg>
