<?xml version="1.0" encoding="utf-8"?>
<!-- Generator: Adobe Illustrator 19.0.0, SVG Export Plug-In . SVG Version: 6.00 Build 0)  -->
<svg version="1.1" xmlns="http://www.w3.org/2000/svg" xmlns:xlink="http://www.w3.org/1999/xlink" x="0px" y="0px"
	 viewBox="0 0 500 500" style="enable-background:new 0 0 500 500;" xml:space="preserve">
<style type="text/css">
	.st0{fill:#E44800;}
	.st1{fill:#FFFFFF;}
</style>
<g id="Layer_1">
	<rect id="XMLID_1_" class="st0" width="500" height="500"/>
</g>
<g id="Layer_2">
	<g id="XMLID_3_">
		<g id="XMLID_4_">
			<path id="XMLID_5_" class="st1" d="M250,209.7c-33.4,0-60.5,27.1-60.5,60.5c0,33.4,27.1,60.5,60.5,60.5
				c33.4,0,60.5-27.1,60.5-60.5C310.5,236.8,283.4,209.7,250,209.7z M411.3,149.2h-48.4c-6.7,0-13.8-5.2-15.9-11.5l-12.5-37.5
				c-2.1-6.3-9.3-11.5-15.9-11.5H181.4c-6.7,0-13.8,5.2-15.9,11.5L153,137.7c-2.1,6.3-9.3,11.5-15.9,11.5H88.7
				c-22.2,0-40.3,18.2-40.3,40.3V371c0,22.2,18.1,40.3,40.3,40.3h322.7c22.2,0,40.3-18.2,40.3-40.3V189.5
				C451.7,167.3,433.5,149.2,411.3,149.2z M250,371c-55.7,0-100.8-45.1-100.8-100.8c0-55.7,45.1-100.8,100.8-100.8
				c55.7,0,100.8,45.1,100.8,100.8C350.8,325.9,305.7,371,250,371z M397.2,217.7c-7.8,0-14.1-6.3-14.1-14.1
				c0-7.8,6.3-14.1,14.1-14.1c7.8,0,14.1,6.3,14.1,14.1C411.3,211.4,405,217.7,397.2,217.7z"/>
		</g>
	</g>
</g>
</svg>
