<?xml version="1.0" encoding="utf-8"?>
<!-- Generator: Adobe Illustrator 19.0.0, SVG Export Plug-In . SVG Version: 6.00 Build 0)  -->
<svg version="1.1" id="Capa_1" xmlns="http://www.w3.org/2000/svg" xmlns:xlink="http://www.w3.org/1999/xlink" x="0px" y="0px"
	 viewBox="-365 277 60 60" style="enable-background:new -365 277 60 60;" xml:space="preserve">
<style type="text/css">
	.st0{fill:#FFFFFF;}
</style>
<g>
	<path class="st0" d="M-313.6,294.7h-7.2l-3.4-8.5h-21.5l-3.4,8.5h-1.1v-4.2h-5.1v4.2h-1c-2.2,0-4.1,1.8-4.1,4.1v24.9
		c0,2.3,1.8,4.1,4.1,4.1h42.7c2.3,0,4.1-1.8,4.1-4.1v-24.9C-309.5,296.5-311.4,294.7-313.6,294.7z M-353.7,292.1h1.7v2.5h-1.7V292.1
		z M-311.2,323.7c0,1.3-1.1,2.4-2.4,2.4h-42.7c-1.3,0-2.4-1.1-2.4-2.4v-24.9c0-1.3,1.1-2.4,2.4-2.4h1h5.1h2.3l3.4-8.5h19.2l3.4,8.5
		h8.4c1.3,0,2.4,1.1,2.4,2.4C-311.2,298.8-311.2,323.7-311.2,323.7z"/>
	<path class="st0" d="M-335,293.8c-8.4,0-15.3,6.9-15.3,15.3s6.9,15.3,15.3,15.3s15.3-6.9,15.3-15.3S-326.6,293.8-335,293.8z
		 M-335,322.7c-7.5,0-13.6-6.1-13.6-13.6s6.1-13.6,13.6-13.6s13.6,6.1,13.6,13.6S-327.5,322.7-335,322.7z"/>
	<path class="st0" d="M-335,298.9c-5.6,0-10.2,4.6-10.2,10.2s4.6,10.2,10.2,10.2s10.2-4.6,10.2-10.2S-329.4,298.9-335,298.9z
		 M-335,317.6c-4.7,0-8.5-3.8-8.5-8.5s3.8-8.5,8.5-8.5s8.5,3.8,8.5,8.5S-330.3,317.6-335,317.6z"/>
	<path class="st0" d="M-316.3,298.1c-1.9,0-3.4,1.5-3.4,3.4c0,1.9,1.5,3.4,3.4,3.4c1.9,0,3.4-1.5,3.4-3.4
		C-312.9,299.6-314.4,298.1-316.3,298.1z M-316.3,303.2c-0.9,0-1.7-0.8-1.7-1.7c0-0.9,0.8-1.7,1.7-1.7c0.9,0,1.7,0.8,1.7,1.7
		C-314.6,302.4-315.4,303.2-316.3,303.2z"/>
</g>
</svg>
