<?xml version="1.0" encoding="UTF-8" standalone="no"?>
<svg
   xmlns:dc="http://purl.org/dc/elements/1.1/"
   xmlns:cc="http://creativecommons.org/ns#"
   xmlns:rdf="http://www.w3.org/1999/02/22-rdf-syntax-ns#"
   xmlns:svg="http://www.w3.org/2000/svg"
   xmlns="http://www.w3.org/2000/svg"
   xmlns:sodipodi="http://sodipodi.sourceforge.net/DTD/sodipodi-0.dtd"
   xmlns:inkscape="http://www.inkscape.org/namespaces/inkscape"
   viewBox="0 0 50 50"
   version="1.1"
   id="svg17"
   sodipodi:docname="client.svg"
   inkscape:version="0.92.3 (2405546, 2018-03-11)">
  <metadata
     id="metadata21">
    <rdf:RDF>
      <cc:Work
         rdf:about="">
        <dc:format>image/svg+xml</dc:format>
        <dc:type
           rdf:resource="http://purl.org/dc/dcmitype/StillImage" />
      </cc:Work>
    </rdf:RDF>
  </metadata>
  <sodipodi:namedview
     pagecolor="#ffffff"
     bordercolor="#666666"
     borderopacity="1"
     objecttolerance="10"
     gridtolerance="10"
     guidetolerance="10"
     inkscape:pageopacity="0"
     inkscape:pageshadow="2"
     inkscape:window-width="1920"
     inkscape:window-height="1012"
     id="namedview19"
     showgrid="false"
     inkscape:zoom="4.72"
     inkscape:cx="25"
     inkscape:cy="25"
     inkscape:window-x="0"
     inkscape:window-y="0"
     inkscape:window-maximized="1"
     inkscape:current-layer="svg17" />
  <defs
     id="defs4">
    <style
       id="style2">.cls-1{fill:#232f3e;}</style>
  </defs>
  <title
     id="title6">Client_light-bg</title>
  <g
     id="Working"
     transform="matrix(0.73286662,0,0,0.73286662,6.961312,6.822402)"
     style="fill:#ffffff">
    <path
       class="cls-1"
       d="m 45.48,34.91 h -41 a 3,3 0 0 1 -3,-3 V 5 a 3,3 0 0 1 3,-3 h 41 a 3,3 0 0 1 3,3 v 26.89 a 3,3 0 0 1 -3,3.02 z M 4.52,4 a 1,1 0 0 0 -1,1 v 26.89 a 1,1 0 0 0 1,1 h 41 a 1,1 0 0 0 1,-1 V 5 a 1,1 0 0 0 -1,-1 z"
       id="path8"
       inkscape:connector-curvature="0"
       style="fill:#ffffff" />
    <path
       class="cls-1"
       d="M 45,48 H 5 A 3.53,3.53 0 0 1 1.5,44.51 V 40.18 A 3.53,3.53 0 0 1 5,36.66 h 40 a 3.53,3.53 0 0 1 3.52,3.52 v 4.33 A 3.53,3.53 0 0 1 45,48 Z M 5,38.66 a 1.52,1.52 0 0 0 -1.5,1.52 v 4.33 A 1.52,1.52 0 0 0 5,46 h 40 a 1.52,1.52 0 0 0 1.52,-1.52 v -4.3 A 1.52,1.52 0 0 0 45,38.66 Z"
       id="path10"
       inkscape:connector-curvature="0"
       style="fill:#ffffff" />
    <path
       class="cls-1"
       d="M 43.75,31.16 H 6.25 a 1,1 0 0 1 -1,-1 V 6.72 a 1,1 0 0 1 1,-1 h 37.5 a 1,1 0 0 1 1,1 v 23.44 a 1,1 0 0 1 -1,1 z m -36.5,-2 h 35.5 V 7.72 H 7.25 Z"
       id="path12"
       inkscape:connector-curvature="0"
       style="fill:#ffffff" />
    <rect
       class="cls-1"
       x="31.5"
       y="40.41"
       width="13.25"
       height="3.8800001"
       rx="1"
       id="rect14"
       style="fill:#ffffff" />
  </g>
</svg>
