<?xml version="1.0" encoding="utf-8"?>
<!-- Generator: Adobe Illustrator 19.0.0, SVG Export Plug-In . SVG Version: 6.00 Build 0)  -->
<svg version="1.1" id="Layer_1" xmlns="http://www.w3.org/2000/svg" xmlns:xlink="http://www.w3.org/1999/xlink" x="0px" y="0px"
	 viewBox="0 0 500 500" style="enable-background:new 0 0 500 500;" xml:space="preserve">
<style type="text/css">
	.st0{fill:#8C3494;}
	.st1{fill:#FFFFFF;}
</style>
<g id="Layer_1_1_">
	<rect id="XMLID_1_" class="st0" width="500" height="500"/>
</g>
<g id="Layer_2">
	<g id="XMLID_6_">
		<circle id="XMLID_5_" class="st1" cx="251.5" cy="119.9" r="96.2"/>
		<path id="XMLID_7_" class="st1" d="M292.3,222.6h-81.6c-67.9,0-123.2,55.2-123.2,123.2v99.8l0.3,1.6l6.9,2.2
			c64.8,20.2,121.1,27,167.5,27c90.5,0,143-25.8,146.2-27.5l6.4-3.3h0.7v-99.8C415.4,277.9,360.2,222.6,292.3,222.6z M270.5,416.4
			l-17.6,25.8c-0.2,0.4-0.6,0.6-1,0.6l0,0c-0.4,0-0.8-0.2-1-0.6l-16.4-25.8c-0.1-0.2-0.2-0.5-0.2-0.8l8.2-125.2
			c0-0.7,0.6-1.2,1.3-1.2h17c0.7,0,1.2,0.5,1.3,1.2l8.8,125.2C270.7,415.9,270.6,416.1,270.5,416.4z M262.5,285.4h-20.2l-17.6-36.3
			c0-3.5,2.8-6.3,6.3-6.3h42.1c3.5,0,6.3,2.8,6.3,6.3L262.5,285.4z"/>
	</g>
</g>
</svg>
