<?xml version="1.0" encoding="utf-8"?>
<!-- Generator: Adobe Illustrator 19.0.0, SVG Export Plug-In . SVG Version: 6.00 Build 0)  -->
<svg version="1.1" id="Capa_1" xmlns="http://www.w3.org/2000/svg" xmlns:xlink="http://www.w3.org/1999/xlink" x="0px" y="0px"
	 viewBox="-139 51 512 512" style="enable-background:new -139 51 512 512;" xml:space="preserve">
<style type="text/css">
	.st0{fill:#FFFFFF;}
</style>
<g>
	<path class="st0" d="M258.3,443c-3.5,0-6.4,2.9-6.4,6.4v60.4c0,2-1.6,3.5-3.5,3.5h-34.5V386.9c0-3.5-2.9-6.4-6.4-6.4
		s-6.4,2.9-6.4,6.4v126.4h-69.5l20.2-22.2c2.2-2.4,3.2-5.9,2.8-9.2c0-0.1,0-0.1,0-0.2l-19.2-113.4l5.2-7.8c2.9,2,5.1,4,9.2,4
		c4.2,0,8.1-2.4,10.1-6.2v0l20.2-40.6l46.1,17.9c1.7,0.7,25.9,11.6,25.9,40.4v43.4c0,3.5,2.9,6.4,6.4,6.4c3.5,0,6.4-2.9,6.4-6.4V376
		c0-38-32.5-51.8-33.9-52.3c0,0-0.1,0-0.1,0l-76.8-29.7v-18c12.2-9.5,20.6-23.5,22.8-39.6c6.1-0.4,11.7-2.7,16.3-6.7
		c6-5.2,9.5-12.7,9.5-20.7c0-6.6-2.4-12.9-6.6-17.8v-23.8c0-43.9-35.7-79.6-79.6-79.6s-79.6,35.7-79.6,79.6v24.4
		c-4.3,4.9-6.6,10.8-6.6,17.2c0,8,3.4,15.5,9.5,20.7c4.6,4,10.2,6.2,16.3,6.7c2.1,16.3,10.8,30.9,24.1,40.5v17.1L3.3,323.6
		c0,0-0.1,0-0.1,0C1.8,324.2-30.7,338-30.7,376v133.7c0,9,7.4,16.4,16.4,16.4h61.2c3.5,0,6.4-2.9,6.4-6.4c0-3.5-2.9-6.4-6.4-6.4H33
		V386.9c0-3.5-2.9-6.4-6.4-6.4s-6.4,2.9-6.4,6.4v126.4h-34.5c-2,0-3.5-1.6-3.5-3.5V376c0-28.9,24.4-39.8,25.9-40.4l46.1-17.9
		l20.2,40.6c1.9,3.9,5.9,6.2,10.1,6.2c4.1,0,6.3-1.9,9.2-4l5.2,7.8L79.6,481.7c0,0.1,0,0.1,0,0.2c-0.5,3.4,0.6,6.8,2.8,9.2
		l20.2,22.2H76.8c-3.5,0-6.4,2.9-6.4,6.4c0,3.5,2.9,6.4,6.4,6.4h171.5c9,0,16.4-7.4,16.4-16.4v-60.4
		C264.7,445.8,261.8,443,258.3,443z M167.8,313.1l-18.9,37.8c-0.5-0.3-10.5-7.4-22.7-16.1c5.3-6.5-0.9,1.1,23.3-28.8L167.8,313.1z
		 M129.9,353.1l-4.9,7.4h-16l-4.9-7.4l12.9-9.2L129.9,353.1z M92.8,296v-12c7.8,3.1,16.1,4.6,24.3,4.6c8.4,0,16.7-1.8,24-5V296
		L117,325.8L92.8,296z M189.7,209c0,4.2-1.8,8.2-5,10.9c-2.1,1.8-4.6,3-7.4,3.4v-28.7C184.6,195.9,189.7,202,189.7,209z M55.4,223.4
		C47.9,222.1,43,216,43,209c0-6.9,5.7-12.4,12.4-14V223.4z M55.7,181.9c-2,0.2-4.4,0.8-6.1,1.4v-15.9c0-36.8,29.9-66.7,66.7-66.7
		s66.7,29.9,66.7,66.7v15.4c-1.9-0.6-3.8-0.9-5.8-1.1c0-6.2,0.1-5-20.2-26.8c-3.7-4-9.9-4.8-14.6-1.8
		c-22.4,14.6-49.6,21.9-74.8,20.1C62.1,172.9,57.1,176.6,55.7,181.9z M68.2,228.4v-40.1v-2.1c27.7,1.6,56.8-6.6,80.2-21.6
		c9.3,10,14.3,15.2,15.9,17.2c0,5,0,40.8,0,46.6c0,26.1-21.2,47.3-47.3,47.3C87.8,275.7,68.2,253,68.2,228.4z M85,350.9l-18.9-37.8
		l18.2-7.1l23.3,28.8C95.8,343.2,86.1,350.1,85,350.9z M92.4,483.1L111,373.3h12l18.6,109.8L117,510.1L92.4,483.1z"/>
</g>
</svg>
