<?xml version="1.0" encoding="utf-8"?>
<!-- Generator: Adobe Illustrator 19.0.0, SVG Export Plug-In . SVG Version: 6.00 Build 0)  -->
<svg version="1.1" xmlns="http://www.w3.org/2000/svg" xmlns:xlink="http://www.w3.org/1999/xlink" x="0px" y="0px"
	 viewBox="0 0 500 500" style="enable-background:new 0 0 500 500;" xml:space="preserve">
<style type="text/css">
	.st0{fill:#FFFFFF;}
</style>
<g id="Layer_2">
		<path id="XMLID_10_" class="st0" d="M454.2,205.3c-1.7-1.9-4.1-3.1-6.6-3.1h-18.2v-98c0-6.7-5.5-12.2-12.2-12.2H206l-17.1-28.5
			c-2.2-3.7-6.2-5.9-10.4-5.9h-95c-6.7,0-12.2,5.5-12.2,12.2v132.5H52.4c-2.5,0-5,1.1-6.6,3c-1.7,1.9-2.4,4.5-2,7l33.9,223.6
			c0.7,4.3,4.3,7.4,8.7,7.4h327.4c4.4,0,8-3.1,8.7-7.4l33.9-223.5C456.6,209.8,455.9,207.3,454.2,205.3z M85,71.4h92.5l17.1,28.5
			c2.2,3.7,6.2,5.9,10.4,5.9h210.5v96.4h-6.9v-27.6h-6.9v-20.7H395v-20.7H105.7v20.7h-6.9v20.7h-6.9v27.6H85V71.4z M105.7,188.5H395
			v13.8H105.7V188.5z M112.5,167.9h275.5v6.9H112.5V167.9z M381.2,154.1H119.4v-6.9h261.7V154.1z M409.4,429.6H90.6L58.3,216.1h13
			h20.7h316.8h20.7h12.4L409.4,429.6z"/>
		<path id="XMLID_7_" class="st0" d="M229.3,395.2H374v-96.4H229.3C229.3,298.7,229.3,395.2,229.3,395.2z M243.1,312.5h117.1v68.9
			H243.1C243.1,381.4,243.1,312.5,243.1,312.5z"/>
		<path id="XMLID_6_" class="st0" d="M263.8,340h27.6c3.8,0,6.9-3.1,6.9-6.9c0-3.8-3.1-6.9-6.9-6.9h-27.6c-3.8,0-6.9,3.1-6.9,6.9
			C256.9,337,260,340,263.8,340z"/>
		<path id="XMLID_5_" class="st0" d="M318.9,340h6.9c3.8,0,6.9-3.1,6.9-6.9c0-3.8-3.1-6.9-6.9-6.9h-6.9c-3.8,0-6.9,3.1-6.9,6.9
			C312,337,315.1,340,318.9,340z"/>
		<path id="XMLID_4_" class="st0" d="M339.5,353.8h-75.8c-3.8,0-6.9,3.1-6.9,6.9s3.1,6.9,6.9,6.9h75.8c3.8,0,6.9-3.1,6.9-6.9
			S343.4,353.8,339.5,353.8z"/>
</g>
</svg>
