<?xml version="1.0" encoding="utf-8"?>
<!-- Generator: Adobe Illustrator 19.0.0, SVG Export Plug-In . SVG Version: 6.00 Build 0)  -->
<svg version="1.1" id="Product_Icon" xmlns="http://www.w3.org/2000/svg" xmlns:xlink="http://www.w3.org/1999/xlink" x="0px"
	 y="0px" viewBox="-474.5 210.5 140 140" style="enable-background:new -474.5 210.5 140 140;" xml:space="preserve">
<style type="text/css">
	.st0{fill:#3B48CC;}
	.st1{fill:#FFFFFF;}
</style>
<title>Amazon-DynamoDB_light-bg</title>
<rect id="Blue_Light_BG" x="-474.5" y="210.5" class="st0" width="140" height="140"/>
<g id="Product_Icon-2">
	<path class="st1" d="M-381,286.1l-12.2,12.2c2.2-0.6,4.3-1.5,6.3-2.6c1.1,0.7,2,2,2.2,3.3c0,3.3-7.2,7-17.8,8.5
		c-3.3,0.4-6.7,0.7-10,0.7h-1.9c-15-0.4-25.9-5-25.9-9.3c0.2-1.3,0.9-2.6,2.2-3.3c5.7,3.3,15.2,5.2,25.6,5.2h0.2l1.1-3.7
		c-0.4,0-0.7,0-1.3,0c-10.2,0-19.6-2-24.6-5.2c-2-1.3-3.2-2.8-3.2-4.1v-8.5c5.7,4.3,17.1,6.7,27.8,6.7c1.5,0,3,0,4.3-0.2l1.1-3.7
		c-1.9,0.2-3.5,0.2-5.4,0.2c-15.9,0-27.8-4.8-27.8-9.3c0.2-1.3,0.9-2.6,2.2-3.3c5.2,3,13,4.6,21.9,5V271c-8.7-0.4-16.7-2.4-21.1-5.2
		c-2-1.3-3.2-2.8-3.2-4.1v-8.5c5.7,4.3,17.1,6.7,27.8,6.7h0.4l2-3.7h-2.4c-15.9,0-27.8-4.8-27.8-9.3c0-4.4,11.9-9.3,27.8-9.3
		c5.4,0,10.7,0.6,15.9,1.9h10.2c-5.6-3.3-15.2-5.6-26.1-5.6c-15.2,0-31.5,4.4-31.5,13v14.8c0.2,2.2,1.1,4.1,2.8,5.6
		c-1.7,1.3-2.8,3.3-2.8,5.6v14.8c0,2.2,1.1,4.3,2.8,5.6c-1.7,1.3-2.8,3.3-2.8,5.6v14.8c0,0.2,0,0.2,0,0.4
		c0.6,8.2,16.5,12.6,31.5,12.6s31-4.4,31.5-12.6c0-0.2,0-0.2,0-0.4v-14.8c0-2.2-1.1-4.3-2.8-5.6c1.7-1.3,2.8-3.3,2.8-5.6v-1.7H-381z
		 M-384.7,313.9c0,4.4-11.9,9.3-27.8,9.3s-27.8-4.8-27.8-9.3v-8.5c5.7,4.3,17.1,6.5,27.8,6.5s22.1-2.2,27.8-6.5
		C-384.7,305.3-384.7,313.9-384.7,313.9z"/>
	<circle class="st1" cx="-434.7" cy="262" r="2.4"/>
	<circle class="st1" cx="-434.7" cy="287.9" r="2.4"/>
	<circle class="st1" cx="-434.7" cy="313.9" r="2.4"/>
	<path class="st1" d="M-407.8,306.4c-0.4,0-0.6-0.2-0.9-0.2c-0.7-0.4-1.1-1.3-0.9-2l10.4-34.7h-10.6c-1.1,0-1.9-0.7-1.9-1.9
		c0-0.4,0-0.6,0.2-0.9l11.1-22.2c0.4-0.6,0.9-0.9,1.7-1.1h24.1c1.1,0,1.9,0.7,1.9,1.7c0,0.2,0,0.4,0,0.7l-4.8,14.3h10.4
		c1.1,0,1.9,0.9,1.9,1.9c0,0.6-0.2,0.9-0.6,1.3l-40.8,42.6C-406.7,306.3-407.3,306.4-407.8,306.4z M-406.5,265.7h10
		c0.6,0,1.1,0.2,1.5,0.7s0.4,1.1,0.4,1.7l-8.9,29.7l32.4-33.9h-8.7c-1.1,0-1.9-0.7-2-1.7c0-0.2,0-0.6,0.2-0.7l4.8-14.3h-20.4
		L-406.5,265.7z"/>
</g>
</svg>
