<?xml version="1.0" encoding="utf-8"?>
<!-- Generator: Adobe Illustrator 19.0.0, SVG Export Plug-In . SVG Version: 6.00 Build 0)  -->
<svg version="1.1" xmlns="http://www.w3.org/2000/svg" xmlns:xlink="http://www.w3.org/1999/xlink" x="0px" y="0px"
	 viewBox="0 0 500 500" style="enable-background:new 0 0 500 500;" xml:space="preserve">
<style type="text/css">
	.st0{fill:#00B5BF;}
	.st1{fill:#FFFFFF;}
</style>
<g id="Layer_1">
	<g id="Layer_1_1_">
		<rect id="XMLID_1_" x="-0.5" class="st0" width="500" height="500"/>
	</g>
</g>
<g id="Layer_2">
	<path class="st1" d="M364.6,462.7H134.4c-10.1,0-18.3-8.2-18.3-18.3V55.6c0-10.1,8.2-18.3,18.3-18.3h230.3
		c10.1,0,18.3,8.2,18.3,18.3v388.7C383,454.5,374.8,462.7,364.6,462.7z"/>
	<path class="st0" d="M357,448.7H142c-6.3,0-11.3-5.1-11.3-11.3V62.7c0-6.3,5.1-11.3,11.3-11.3h215c6.3,0,11.3,5.1,11.3,11.3v374.7
		C368.3,443.6,363.3,448.7,357,448.7z"/>
	<path class="st1" d="M343.8,415.3H155.2c-3.7,0-6.7,3-6.7,6.7l0,0c0,3.7,3,6.7,6.7,6.7h188.7c3.7,0,6.7-3,6.7-6.7l0,0
		C350.5,418.3,347.5,415.3,343.8,415.3z"/>
	<path class="st1" d="M343.8,391.8H155.2c-3.7,0-6.7,3-6.7,6.7v0c0,3.7,3,6.7,6.7,6.7h188.7c3.7,0,6.7-3,6.7-6.7v0
		C350.5,394.7,347.5,391.8,343.8,391.8z"/>
	<path class="st1" d="M343.8,367.3H155.2c-3.7,0-6.7,3-6.7,6.7l0,0c0,3.7,3,6.7,6.7,6.7h188.7c3.7,0,6.7-3,6.7-6.7l0,0
		C350.5,370.3,347.5,367.3,343.8,367.3z"/>
	<circle class="st1" cx="335.9" cy="351.6" r="8.1"/>
	<g>
		<path class="st1" d="M344,207.2v-58.4c0-0.5-0.1-1.1-0.3-1.5c0.2-1.6,0.3-3.2,0.3-4.9c0-22.1-18-40.1-40.1-40
			c-10.4,0-20.5,4.1-28,11.4h-52.8c-15.8-15.5-41.2-15.2-56.7,0.7c-7.3,7.5-11.4,17.5-11.4,28c0,1.6,0.1,3.3,0.3,4.9
			c-0.2,0.5-0.3,1-0.3,1.5V207c-0.2,7.4,2.4,14.6,7.3,20.2c4.5,4.5,10.8,7,17.2,6.7c19,0,28.6-23.8,36.5-44.8
			c1.8-4.5,3.4-8.8,5.1-12.4h56.9c1.7,3.7,3.3,7.9,5,12.4c8.2,21,17.5,44.8,36.6,44.8c6.4,0.3,12.6-2.2,17.2-6.7
			C341.7,221.6,344.2,214.5,344,207.2z M332.5,142.3c0,15.8-12.8,28.6-28.6,28.6c-15.8,0-28.6-12.8-28.6-28.6s12.8-28.6,28.6-28.6
			C319.7,113.7,332.5,126.5,332.5,142.3z M231.2,125.1h36.5c-6.2,13-5,28.3,3.2,40.1h-43C236.2,153.4,237.4,138.1,231.2,125.1z
			 M195.1,113.7c15.8,0,28.6,12.8,28.6,28.6S210.9,171,195.1,171s-28.6-12.8-28.6-28.6C166.4,126.5,179.2,113.7,195.1,113.7
			C195.1,113.6,195.1,113.6,195.1,113.7L195.1,113.7z M179.4,222.5c-3.2,0.3-6.4-0.8-8.8-2.9c-2.7-3.4-4.2-7.7-4.1-12.1v-37.1
			c7.5,7.8,17.8,12.2,28.6,12.1c4,0,8-0.6,11.9-1.8l-1.7,4.2C198.8,201.6,190.6,222.4,179.4,222.5L179.4,222.5z M328.3,219.4
			c-2.4,2.2-5.6,3.4-8.8,3.1c-11.5,0-19.4-20.8-25.9-37.6c-0.6-1.4-1.1-2.8-1.7-4.2c3.8,1.2,7.8,1.8,11.9,1.8
			c10.8,0,21.1-4.4,28.6-12.1v36.9c0.1,4.4-1.3,8.7-4,12.2L328.3,219.4z"/>
		<polygon class="st1" points="189.4,159.4 200.8,159.4 200.8,148 212.3,148 212.3,136.6 200.8,136.6 200.8,125.1 189.4,125.1 
			189.4,136.6 177.9,136.6 177.9,148 189.4,148 		"/>
		<path class="st1" d="M303.9,151.7c5.2,0,9.3-4.2,9.3-9.3c0-5.2-4.2-9.3-9.3-9.3c-5.2,0-9.3,4.2-9.3,9.3
			C294.6,147.5,298.7,151.7,303.9,151.7C303.9,151.7,303.9,151.7,303.9,151.7z"/>
	</g>
</g>
</svg>
