<?xml version="1.0" encoding="utf-8"?>
<!-- Generator: Adobe Illustrator 19.0.0, SVG Export Plug-In . SVG Version: 6.00 Build 0)  -->
<svg version="1.1" xmlns="http://www.w3.org/2000/svg" xmlns:xlink="http://www.w3.org/1999/xlink" x="0px" y="0px"
	 viewBox="0 0 500 500" style="enable-background:new 0 0 500 500;" xml:space="preserve">
<style type="text/css">
	.st0{fill:#D6242D;}
	.st1{fill:#FFFFFF;}
</style>
<g id="Layer_1">
	<rect id="XMLID_1_" class="st0" width="500" height="500"/>
</g>
<g id="Layer_2">
	<g id="Product_Icon-2">
		<path class="st1" d="M428.2,101.4H72.8c-12.4,0-22.4,10.1-22.4,22.4v251.4c0,12.4,10.1,22.4,22.4,22.4h355.4
			c12.4,0,22.4-10.1,22.4-22.4V123.8C450.6,111.5,440.6,101.4,428.2,101.4z M434.6,375.2c0,3.5-2.9,6.4-6.4,6.4H72.8
			c-3.5,0-6.4-2.9-6.4-6.4V123.8c0-3.5,2.9-6.4,6.4-6.4h355.4c3.5,0,6.4,2.9,6.4,6.4V375.2z"/>
		<rect id="XMLID_12_" x="274.5" y="205.5" class="st1" width="80.1" height="16"/>
		<rect id="XMLID_11_" x="386.6" y="205.5" class="st1" width="16" height="16"/>
		<path class="st1" d="M240.2,231.9c-1.5-1.5-3.5-2.4-5.7-2.4H122.4v-40c0.2-9.1,4.7-17.5,12-22.8c8.1-6.1,17.9-9.3,28-9.2
			c10.5-0.1,20.7,3.4,28.8,10.1c6.8,5.3,10.9,13.3,11.2,21.9v40h16v-43.2c-0.3-12.7-6.5-24.6-16.9-32c-11.3-8.5-25-13-39.1-12.8
			c-30.9,0-56,20.1-56,44.7v43.3h-16c-4.4,0-8,3.6-8,8v112.1c0,4.4,3.6,8,8,8h144.1c4.4,0,8-3.6,8-8V237.5
			C242.5,235.4,241.7,233.4,240.2,231.9z M226.5,269.5h-24v16h24v16h-24v16h24v24H98.4v-96.1h128.1V269.5z"/>
		<path class="st1" d="M162.4,258.1c-13,0-23.4,10.6-23.4,23.5c0,9.8,6.2,18.5,15.4,21.9v22h16v-22c12.2-4.5,18.4-17.9,13.9-30.1
			C181,264.2,172.2,258.1,162.4,258.1z M162.4,291.7c-5.6,0-10.2-4.6-10.2-10.2c0-5.6,4.6-10.2,10.2-10.2s10.2,4.6,10.2,10.2
			C172.6,287.1,168.1,291.7,162.4,291.7C162.4,291.7,162.4,291.7,162.4,291.7z"/>
		<rect id="XMLID_5_" x="274.5" y="245.5" class="st1" width="56" height="16"/>
		<rect id="XMLID_4_" x="362.6" y="245.5" class="st1" width="40" height="16"/>
		<rect id="XMLID_3_" x="274.5" y="285.5" class="st1" width="104.1" height="16"/>
	</g>
</g>
</svg>
