<?xml version="1.0" encoding="utf-8"?>
<!-- Generator: Adobe Illustrator 19.0.0, SVG Export Plug-In . SVG Version: 6.00 Build 0)  -->
<svg version="1.1" id="Layer_1" xmlns="http://www.w3.org/2000/svg" xmlns:xlink="http://www.w3.org/1999/xlink" x="0px" y="0px"
	 viewBox="-358 269 75 75" style="enable-background:new -358 269 75 75;" xml:space="preserve">
<style type="text/css">
	.st0{fill:#FFFFFF;}
</style>
<g id="Icon_Kinesis">
	<path class="st0" d="M-295.5,301.5v2h-8.8c-23.1,0-41.2-9.1-41.2-20.7c0-0.4,0-0.8,0.1-1.3h2c-0.1,0.4-0.1,0.8-0.1,1.3
		c0,10.3,17.6,18.7,39.2,18.7H-295.5z"/>
	<path class="st0" d="M-295.5,305.5v2h-12.2c-19.6,0-33.6,3.2-37.8,8.5v-2.7c4.4-3.8,12.5-5.8,20.4-6.8l0,0c-7.9-1-16-3-20.4-6.7
		v-2.9c4.1,5.3,17.9,8.5,37.1,8.6H-295.5z"/>
	<path class="st0" d="M-295.5,297.5v2h-4.1c-20.1,0-34.7-6.8-34.7-16.2c0,0,0-1.1,0-1.8h2.1c0,0.5,0,1.5,0,1.8
		c0,8,14,14.2,32.5,14.2H-295.5z"/>
	<path class="st0" d="M-295.5,309.5v2h-8.8c-21.6,0-39.2,8.4-39.2,18.8c0,0.4,0,0.8,0.1,1.2h-2c-0.1-0.4-0.1-0.8-0.1-1.2
		c0-11.6,18.1-20.8,41.2-20.8H-295.5z"/>
	<path class="st0" d="M-295.5,313.5v2h-4.1c-18.6,0-32.6,6-32.6,14.1c0,0.4,0,1.5,0,1.9h-2c0-0.7,0-1.9,0-1.9
		c0-9.3,14.6-16.1,34.6-16.1H-295.5z"/>
</g>
</svg>
