<?xml version="1.0" encoding="UTF-8" standalone="no"?>
<svg
   xmlns:dc="http://purl.org/dc/elements/1.1/"
   xmlns:cc="http://creativecommons.org/ns#"
   xmlns:rdf="http://www.w3.org/1999/02/22-rdf-syntax-ns#"
   xmlns:svg="http://www.w3.org/2000/svg"
   xmlns="http://www.w3.org/2000/svg"
   xmlns:sodipodi="http://sodipodi.sourceforge.net/DTD/sodipodi-0.dtd"
   xmlns:inkscape="http://www.inkscape.org/namespaces/inkscape"
   viewBox="0 0 75 75"
   version="1.1"
   id="svg31"
   sodipodi:docname="lakeFormation.svg"
   inkscape:version="0.92.3 (2405546, 2018-03-11)">
  <metadata
     id="metadata35">
    <rdf:RDF>
      <cc:Work
         rdf:about="">
        <dc:format>image/svg+xml</dc:format>
        <dc:type
           rdf:resource="http://purl.org/dc/dcmitype/StillImage" />
      </cc:Work>
    </rdf:RDF>
  </metadata>
  <sodipodi:namedview
     pagecolor="#ffffff"
     bordercolor="#666666"
     borderopacity="1"
     objecttolerance="10"
     gridtolerance="10"
     guidetolerance="10"
     inkscape:pageopacity="0"
     inkscape:pageshadow="2"
     inkscape:window-width="1920"
     inkscape:window-height="1012"
     id="namedview33"
     showgrid="false"
     inkscape:zoom="17.800235"
     inkscape:cx="41.00913"
     inkscape:cy="32.293346"
     inkscape:window-x="0"
     inkscape:window-y="0"
     inkscape:window-maximized="1"
     inkscape:current-layer="svg31" />
  <defs
     id="defs4">
    <style
       id="style2">.cls-1{fill:#693cc5;}.cls-2{fill:#fff;}</style>
  </defs>
  <title
     id="title6">AWS-Lake-Formation_light-bg</title>
  <rect
     style="fill:none"
     y="0"
     x="0"
     height="75"
     width="75"
     class="cls-1"
     data-name="Purple Light BG"
     id="Purple_Light_BG" />
  <g
     data-name="Product Icon"
     id="Product_Icon">
    <path
       style="fill:#ffffff"
       inkscape:connector-curvature="0"
       id="path9"
       d="m 37.53,61.92 q -0.84,0 -1.68,-0.06 A 22.09,22.09 0 0 1 20.65,54.2 22.35,22.35 0 0 1 18,29 l 1.75,1 A 20.25,20.25 0 1 0 32.69,20 l -0.47,-2 a 22.24,22.24 0 1 1 5.31,43.84 z"
       class="cls-2" />
    <path
       style="fill:#ffffff"
       inkscape:connector-curvature="0"
       id="path11"
       d="m 26.65,45 a 1,1 0 0 1 -0.64,-0.23 l -3.77,-3.12 a 1,1 0 0 1 0.63,-1.77 h 1.49 v -1.51 h 2 v 2.49 a 1,1 0 0 1 -0.74,1 l 1,0.84 1,-0.83 a 1,1 0 0 1 -0.78,-1 v -2.5 h 2 v 1.49 h 1.49 a 1,1 0 0 1 0.94,0.66 1,1 0 0 1 -0.3,1.11 l -3.7,3.11 A 1,1 0 0 1 26.65,45 Z"
       class="cls-2" />
    <path
       style="fill:#ffffff"
       inkscape:connector-curvature="0"
       id="path13"
       d="M 26.65,37.87 A 6.35,6.35 0 0 1 24.4,37.44 1,1 0 0 1 23.74,36.51 V 35 l -7.31,-11.46 1.68,-1.08 7.47,11.66 a 1,1 0 0 1 0.16,0.54 v 1.1 a 3.79,3.79 0 0 0 1.74,0 v -1.1 a 1,1 0 0 1 0.16,-0.54 L 35.11,22.43 36.8,23.5 29.48,35 v 1.56 a 1,1 0 0 1 -0.63,0.92 5.65,5.65 0 0 1 -2.2,0.39 z"
       class="cls-2" />
    <path
       style="fill:#ffffff"
       inkscape:connector-curvature="0"
       id="path15"
       d="m 26.61,25.67 c -1.39,0 -8.41,-0.08 -9.92,-1.6 A 0.92,0.92 0 0 1 16.52,23.85 L 16.4,23.63 A 0.93,0.93 0 0 1 16.28,23.3 c 0,-0.05 0,-0.14 0,-0.19 0,-1.63 3.28,-2.49 9.76,-2.56 v 2 a 34.76,34.76 0 0 0 -6.51,0.56 37,37 0 0 0 7.07,0.56 38.28,38.28 0 0 0 7.07,-0.56 c -0.43,-0.09 -1,-0.18 -1.68,-0.27 l 0.24,-2 c 3.35,0.41 4.71,1.06 4.71,2.25 a 1.42,1.42 0 0 1 -0.66,1.17 c -1.43,1.04 -6.1,1.41 -9.67,1.41 z"
       class="cls-2" />
    <path
       style="fill:#ffffff"
       inkscape:connector-curvature="0"
       id="path17"
       d="m 30.35,23.18 h -2.49 a 1,1 0 0 1 -1,-1 v -2.5 a 1,1 0 0 1 1,-1 h 2.49 a 1,1 0 0 1 1,1 v 2.5 a 1,1 0 0 1 -1,1 z m -1.49,-2 h 0.49 v -0.5 h -0.49 z"
       class="cls-2" />
    <path
       style="fill:#ffffff"
       inkscape:connector-curvature="0"
       id="path19"
       d="m 29.1,17.57 h -2.49 a 1,1 0 0 1 -1,-1 v -2.49 a 1,1 0 0 1 1,-1 h 2.49 a 1,1 0 0 1 1,1 v 2.49 a 1,1 0 0 1 -1,1 z m -1.49,-2 h 0.49 v -0.49 h -0.49 z"
       class="cls-2" />
    <path
       style="fill:#ffffff"
       inkscape:connector-curvature="0"
       id="path21"
       d="m 24.12,20.68 h -2.49 a 1,1 0 0 1 -1,-1 v -2.49 a 1,1 0 0 1 1,-1 h 2.49 a 1,1 0 0 1 1,1 v 2.49 a 1,1 0 0 1 -1,1 z m -1.49,-2 h 0.49 v -0.49 h -0.49 z"
       class="cls-2" />
    <path
       style="fill:#ffffff"
       inkscape:connector-curvature="0"
       id="path23"
       d="m 46.56,54.1 a 3.93,3.93 0 0 1 -2.91,-1.3 3.91,3.91 0 0 1 -5.82,0 3.91,3.91 0 0 1 -5.82,0 3.91,3.91 0 0 1 -2.91,1.3 v -2 A 1.91,1.91 0 0 0 31,50.19 h 2 a 1.91,1.91 0 1 0 3.82,0 h 2 a 1.91,1.91 0 1 0 3.82,0 h 2 a 1.92,1.92 0 0 0 1.91,1.91 z"
       class="cls-2" />
    <path
       style="fill:#ffffff"
       inkscape:connector-curvature="0"
       id="path25"
       d="m 51.52,32.75 a 3.91,3.91 0 0 1 -2.91,-1.3 3.91,3.91 0 0 1 -5.82,0 3.91,3.91 0 0 1 -5.82,0 3.87,3.87 0 0 1 -2.91,1.3 v -2 A 1.91,1.91 0 0 0 36,28.84 h 2 a 1.91,1.91 0 1 0 3.82,0 h 2 a 1.91,1.91 0 1 0 3.82,0 h 2 a 1.92,1.92 0 0 0 1.91,1.91 z"
       class="cls-2" />
    <path
       style="fill:#ffffff"
       inkscape:connector-curvature="0"
       id="path27"
       d="m 53.25,42.8 a 3.91,3.91 0 0 1 -2.91,-1.3 3.91,3.91 0 0 1 -5.82,0 3.9,3.9 0 0 1 -5.81,0 3.91,3.91 0 0 1 -2.91,1.3 v -2 a 1.92,1.92 0 0 0 1.91,-1.91 h 2 a 1.91,1.91 0 1 0 3.81,0 h 2 a 1.91,1.91 0 0 0 3.82,0 h 2 a 1.91,1.91 0 0 0 3.82,0 h 2 a 3.91,3.91 0 0 1 -3.91,3.91 z"
       class="cls-2" />
  </g>
</svg>
