<?xml version="1.0" encoding="UTF-8" standalone="no"?>
<svg
   xmlns:dc="http://purl.org/dc/elements/1.1/"
   xmlns:cc="http://creativecommons.org/ns#"
   xmlns:rdf="http://www.w3.org/1999/02/22-rdf-syntax-ns#"
   xmlns:svg="http://www.w3.org/2000/svg"
   xmlns="http://www.w3.org/2000/svg"
   xmlns:sodipodi="http://sodipodi.sourceforge.net/DTD/sodipodi-0.dtd"
   xmlns:inkscape="http://www.inkscape.org/namespaces/inkscape"
   viewBox="0 0 75 75"
   version="1.1"
   id="svg15"
   sodipodi:docname="AWS-Lambda_light-bg.svg"
   inkscape:version="0.92.3 (2405546, 2018-03-11)">
  <metadata
     id="metadata19">
    <rdf:RDF>
      <cc:Work
         rdf:about="">
        <dc:format>image/svg+xml</dc:format>
        <dc:type
           rdf:resource="http://purl.org/dc/dcmitype/StillImage" />
        <dc:title>AWS-Lambda_light-bg</dc:title>
      </cc:Work>
    </rdf:RDF>
  </metadata>
  <sodipodi:namedview
     pagecolor="#ffffff"
     bordercolor="#666666"
     borderopacity="1"
     objecttolerance="10"
     gridtolerance="10"
     guidetolerance="10"
     inkscape:pageopacity="0"
     inkscape:pageshadow="2"
     inkscape:window-width="1920"
     inkscape:window-height="1012"
     id="namedview17"
     showgrid="false"
     inkscape:zoom="8.9001173"
     inkscape:cx="28.059251"
     inkscape:cy="42.586655"
     inkscape:window-x="0"
     inkscape:window-y="0"
     inkscape:window-maximized="1"
     inkscape:current-layer="Reference" />
  <defs
     id="defs4">
    <style
       id="style2">.cls-1{fill:#d86613;}.cls-2{fill:#fff;}</style>
  </defs>
  <title
     id="title6">AWS-Lambda_light-bg</title>
  <g
     id="Reference">
    <rect
       id="Orange_Light_BG"
       data-name="Orange Light BG"
       class="cls-1"
       width="75"
       height="75"
       x="0"
       y="0"
       style="fill:none" />
    <g
       id="Product_Icon"
       data-name="Product Icon">
      <path
         class="cls-2"
         d="M 60.5,62.5 H 48.18 a 1,1 0 0 1 -0.9,-0.57 L 29.86,25.5 h -7.37 a 1,1 0 0 1 -1,-1 v -11 a 1,1 0 0 1 1,-1 h 15.4 a 1,1 0 0 1 0.9,0.57 L 56.13,49.5 h 4.37 a 1,1 0 0 1 1,1 v 11 a 1,1 0 0 1 -1,1 z m -11.69,-2 H 59.5 v -9 h -4 A 1,1 0 0 1 54.6,50.93 L 37.26,14.5 H 23.5 v 9 h 7 a 1,1 0 0 1 0.9,0.57 z"
         id="path9"
         inkscape:connector-curvature="0"
         style="fill:#ffffff" />
      <path
         class="cls-2"
         d="m 27.48,62.5 h -13 a 1,1 0 0 1 -0.85,-0.47 1,1 0 0 1 -0.05,-1 l 13.6,-28.41 a 1,1 0 0 1 0.9,-0.57 v 0 a 1,1 0 0 1 0.9,0.56 L 35.49,46 a 1,1 0 0 1 0,0.87 l -7.1,15 a 1,1 0 0 1 -0.91,0.63 z m -11.4,-2 h 10.77 l 6.63,-14 -5.39,-11.15 z"
         id="path11"
         inkscape:connector-curvature="0"
         style="fill:#ffffff" />
    </g>
  </g>
</svg>
