<?xml version="1.0" encoding="utf-8"?>
<!-- Generator: Adobe Illustrator 19.0.0, SVG Export Plug-In . SVG Version: 6.00 Build 0)  -->
<svg version="1.1" id="svg178" xmlns="http://www.w3.org/2000/svg" xmlns:xlink="http://www.w3.org/1999/xlink" x="0px" y="0px"
	 viewBox="-358 269 75 75" style="enable-background:new -358 269 75 75;" xml:space="preserve">
<style type="text/css">
	.st0{fill:#FFFFFF;}
</style>
<g id="phone1" transform="matrix(1.3197851,0,0,1.3197851,5.5120822,4.1571891)">
	
		<rect id="rect10_4_" x="-247.6" y="230.7" transform="matrix(0.9914 -0.1309 0.1309 0.9914 -32.3826 -30.2415)" class="st0" width="2.8" height="1"/>
	<path id="path12_4_" class="st0" d="M-249.2,232.4c-0.5,0-0.9-0.2-1-0.8c0-0.5,0.2-0.9,0.8-1c0.4,0,0.9,0.2,0.9,0.7
		C-248.5,231.9-248.8,232.3-249.2,232.4L-249.2,232.4z M-249.4,231.4c-0.1,0-0.2,0.2-0.2,0.2c0,0.1,0.2,0.2,0.2,0.2
		c0.1,0,0.1,0,0.2-0.2C-249.2,231.5-249.3,231.4-249.4,231.4L-249.4,231.4z"/>
	<path class="st0" d="M-241.1,230.5c-0.2-1.3-1.4-2.2-2.7-2l-7.2,0.9c-1.3,0.2-2.2,1.4-2,2.7l2.4,18.6c0.2,1.2,1.2,1.8,2.6,1.6
		l7.2-0.9c1.4-0.2,2.3-1,2-2.3l-0.1-1.1l0,0l0-0.1L-241.1,230.5z M-239.6,249.2c0.1,0.6-0.3,1-1.2,1.1l-7.2,0.9
		c-0.9,0.2-1.4-0.2-1.5-0.8l-0.1-0.8l9.9-1.3L-239.6,249.2z M-239.9,247.5l-9.9,1.3l-2-14.5l9.9-1.3L-239.9,247.5z M-242,231.9
		l-9.9,1.3l-0.2-1.3c-0.1-0.8,0.4-1.5,1.2-1.6l7.2-0.9c0.8-0.1,1.5,0.5,1.5,1.2L-242,231.9z"/>
</g>
<g id="phone2" transform="matrix(1.3197851,0,0,1.3197851,5.5120822,4.1571891)">
	
		<rect id="rect10_3_" x="-260" y="208.5" transform="matrix(0.9862 0.1655 -0.1655 0.9862 31.0288 45.6892)" class="st0" width="2.8" height="1"/>
	<path id="path12_3_" class="st0" d="M-262,209.4c-0.5-0.1-0.8-0.5-0.7-1c0.1-0.5,0.5-0.8,1-0.7c0.4,0.1,0.8,0.5,0.7,0.9
		C-261.1,209.1-261.5,209.4-262,209.4L-262,209.4z M-261.8,208.4c-0.1,0-0.2,0.1-0.2,0.1c0,0.1,0.1,0.2,0.1,0.2c0.1,0,0.1,0,0.2-0.1
		C-261.7,208.5-261.7,208.4-261.8,208.4L-261.8,208.4z"/>
	<path class="st0" d="M-253.7,210c0.2-1.3-0.6-2.5-1.9-2.8l-7.2-1.2c-1.3-0.2-2.5,0.7-2.7,2l-3.1,18.4c-0.2,1.2,0.6,2.1,2,2.3
		l7.2,1.2c1.4,0.2,2.5-0.3,2.7-1.5l0.2-1.1l0,0v-0.1L-253.7,210z M-257.7,228.2c-0.1,0.6-0.6,0.9-1.5,0.7l-7.2-1.2
		c-0.9-0.1-1.3-0.6-1.2-1.2l0.1-0.8l9.9,1.7L-257.7,228.2z M-257.4,226.5l-9.9-1.7l2.4-14.5l9.9,1.7L-257.4,226.5z M-254.8,211.1
		l-9.9-1.7l0.2-1.3c0.1-0.8,0.8-1.3,1.6-1.2l7.2,1.2c0.8,0.1,1.3,0.9,1.1,1.6L-254.8,211.1z"/>
</g>
<g id="phone3" transform="matrix(1.3197851,0,0,1.3197851,5.5120822,4.1571891)">
	
		<rect id="rect10_2_" x="-233.5" y="207.8" transform="matrix(0.9961 -8.799181e-002 8.799181e-002 0.9961 -19.2278 -19.6109)" class="st0" width="2.8" height="1"/>
	<path id="path12_2_" class="st0" d="M-235.2,209.4c-0.5,0-0.9-0.3-0.9-0.8s0.3-0.9,0.8-0.9s0.9,0.3,0.9,0.7
		C-234.4,209-234.7,209.4-235.2,209.4L-235.2,209.4z M-235.3,208.4c-0.1,0-0.1,0.1-0.1,0.2c0,0.1,0.1,0.1,0.2,0.1
		c0.1,0,0.1-0.1,0.1-0.2C-235.1,208.5-235.2,208.4-235.3,208.4L-235.3,208.4z"/>
	<path class="st0" d="M-227,207.9c-0.1-1.3-1.3-2.3-2.6-2.2l-7.3,0.6c-1.3,0.1-2.3,1.3-2.1,2.6l1.6,18.6c0.1,1.2,1.1,1.9,2.5,1.7
		l7.3-0.6c1.5-0.1,2.3-0.9,2.2-2.2l-0.1-1.1l0,0v-0.1L-227,207.9z M-226.3,226.6c0.1,0.7-0.4,1-1.3,1.1l-7.3,0.6
		c-0.9,0.1-1.4-0.2-1.5-0.9l-0.1-0.8l10-0.9L-226.3,226.6z M-226.5,224.8l-10,0.9l-1.3-14.6l10-0.9L-226.5,224.8z M-227.9,209.3
		l-10,0.9l-0.1-1.3c-0.1-0.8,0.5-1.5,1.3-1.5l7.3-0.6c0.8-0.1,1.4,0.5,1.5,1.3V209.3z"/>
</g>
</svg>
