<?xml version="1.0" encoding="utf-8"?>
<!-- Generator: Adobe Illustrator 19.0.0, SVG Export Plug-In . SVG Version: 6.00 Build 0)  -->
<svg version="1.1" xmlns="http://www.w3.org/2000/svg" xmlns:xlink="http://www.w3.org/1999/xlink" x="0px" y="0px"
	 viewBox="-212 213 75 75" style="enable-background:new -212 213 75 75;" xml:space="preserve">
<style type="text/css">
	.st0{fill:#232F3E;}
	.st1{fill:#FFFFFF;}
</style>
<g id="Layer_3">
	<rect id="Purple_Light_BG" x="-212" y="213" class="st0" width="75" height="75"/>
	<rect id="Purple_Light_BG_1_" x="-211.7" y="213" class="st0" width="75" height="75"/>
</g>
<g id="Layer_2">
</g>
<g id="svg178" xmlns:rdf="http://www.w3.org/1999/02/22-rdf-syntax-ns#" xmlns:cc="http://creativecommons.org/ns#" xmlns:svg="http://www.w3.org/2000/svg" xmlns:dc="http://purl.org/dc/elements/1.1/">
	<g>
		<path id="path8_13_" class="st0" d="M-149.9,244.2v1.4c0,1.5-1.2,2.4-3.1,2.4h-9.5c-1.9,0-3.1-0.9-3.1-2.4v-22.8
			c0-1.6,1.4-2.9,3.1-2.9h9.5c1.7,0,3.1,1.3,3.1,2.9V244.2"/>
		<g id="Working_6_" transform="matrix(1.3197851,0,0,1.3197851,5.5120822,4.1571891)">
			<path id="path8_12_" class="st1" d="M-120.5,184.2h-6.4c-1.3,0-2.1-0.7-2.1-1.7v-16.3c0-1.1,0.9-2.1,2.1-2.1h6.4
				c1.1,0,2.1,0.9,2.1,2.1v1.6h-0.9v-1.6c0-0.7-0.5-1.2-1.2-1.2h-6.4c-0.7,0-1.2,0.6-1.2,1.2v16.3c0,0.6,0.4,0.9,1.2,0.9h6.4
				c0.8,0,1.2-0.3,1.2-0.9v-1h0.9v1C-118.4,183.6-119.2,184.2-120.5,184.2z"/>
			<rect id="rect10_6_" x="-124.1" y="165.7" class="st1" width="2.4" height="0.9"/>
			<path id="path12_6_" class="st1" d="M-125.7,166.9c-0.4,0-0.7-0.3-0.7-0.7c0-0.4,0.3-0.7,0.7-0.7c0.4,0,0.7,0.3,0.7,0.7
				C-124.9,166.5-125.2,166.8-125.7,166.9C-125.6,166.9-125.7,166.9-125.7,166.9z M-125.7,166c-0.1,0-0.1,0.1-0.1,0.1
				c0,0.1,0.1,0.1,0.1,0.1c0.1,0,0.1-0.1,0.1-0.1C-125.5,166.1-125.6,166-125.7,166C-125.7,166-125.7,166-125.7,166z"/>
			<path id="path14_6_" class="st1" d="M-118.4,179.8h-0.9v-11.6h-9.2v-0.9h9.6c0.2,0,0.4,0.2,0.4,0.4V179.8z"/>
			<path id="path16_6_" class="st1" d="M-118.8,181.8h-9.6v-0.9h9.2v-2h0.9v2.4C-118.4,181.6-118.6,181.8-118.8,181.8z"/>
		</g>
	</g>
	<title  id="title159">Amazon-Elasticsearch-Service_light-bg</title>
	<g>
		<path id="path8_3_" class="st0" d="M-177.2,248.6v1.4c0,1.5-1.2,2.4-3.1,2.4h-9.5c-1.9,0-3.1-0.9-3.1-2.4v-22.8
			c0-1.6,1.4-2.9,3.1-2.9h9.5c1.7,0,3.1,1.3,3.1,2.9V248.6"/>
		<g id="Working" transform="matrix(1.3197851,0,0,1.3197851,5.5120822,4.1571891)">
			<path id="path8" class="st1" d="M-141.2,187.5h-6.4c-1.3,0-2.1-0.7-2.1-1.7v-16.3c0-1.1,0.9-2.1,2.1-2.1h6.4
				c1.1,0,2.1,0.9,2.1,2.1v1.6h-0.9v-1.6c0-0.7-0.5-1.2-1.2-1.2h-6.4c-0.7,0-1.2,0.6-1.2,1.2v16.3c0,0.6,0.4,0.9,1.2,0.9h6.4
				c0.8,0,1.2-0.3,1.2-0.9v-1h0.9v1C-139.1,186.9-139.9,187.5-141.2,187.5z"/>
			<rect id="rect10" x="-144.8" y="169" class="st1" width="2.4" height="0.9"/>
			<path id="path12" class="st1" d="M-146.4,170.2c-0.4,0-0.7-0.3-0.7-0.7c0-0.4,0.3-0.7,0.7-0.7c0.4,0,0.7,0.3,0.7,0.7
				C-145.7,169.8-146,170.2-146.4,170.2C-146.4,170.2-146.4,170.2-146.4,170.2z M-146.4,169.3c-0.1,0-0.1,0.1-0.1,0.1
				c0,0.1,0.1,0.1,0.1,0.1c0.1,0,0.1-0.1,0.1-0.1C-146.3,169.4-146.3,169.3-146.4,169.3C-146.4,169.3-146.4,169.3-146.4,169.3z"/>
			<path id="path14" class="st1" d="M-139.1,183.1h-0.9v-11.6h-9.2v-0.9h9.6c0.2,0,0.4,0.2,0.4,0.4V183.1z"/>
			<path id="path16" class="st1" d="M-139.6,185.1h-9.6v-0.9h9.2v-2h0.9v2.4C-139.1,184.9-139.3,185.1-139.6,185.1z"/>
		</g>
	</g>
	<g>
		<path id="path8_2_" class="st0" d="M-169.9,259.5v1.4c0,1.5-1.2,2.4-3.1,2.4h-9.5c-1.9,0-3.1-0.9-3.1-2.4v-22.8
			c0-1.6,1.4-2.9,3.1-2.9h9.5c1.7,0,3.1,1.3,3.1,2.9V259.5"/>
		<g id="Working_1_" transform="matrix(1.3197851,0,0,1.3197851,5.5120822,4.1571891)">
			<path id="path8_1_" class="st1" d="M-135.7,195.8h-6.4c-1.3,0-2.1-0.7-2.1-1.7v-16.3c0-1.1,0.9-2.1,2.1-2.1h6.4
				c1.1,0,2.1,0.9,2.1,2.1v1.6h-0.9v-1.6c0-0.7-0.5-1.2-1.2-1.2h-6.4c-0.7,0-1.2,0.6-1.2,1.2v16.3c0,0.6,0.4,0.9,1.2,0.9h6.4
				c0.8,0,1.2-0.3,1.2-0.9v-1h0.9v1C-133.6,195.1-134.4,195.8-135.7,195.8z"/>
			<rect id="rect10_1_" x="-139.3" y="177.3" class="st1" width="2.4" height="0.9"/>
			<path id="path12_1_" class="st1" d="M-140.9,178.4c-0.4,0-0.7-0.3-0.7-0.7c0-0.4,0.3-0.7,0.7-0.7c0.4,0,0.7,0.3,0.7,0.7
				C-140.1,178.1-140.4,178.4-140.9,178.4C-140.9,178.4-140.9,178.4-140.9,178.4z M-140.9,177.6c-0.1,0-0.1,0.1-0.1,0.1
				c0,0.1,0.1,0.1,0.1,0.1c0.1,0,0.1-0.1,0.1-0.1C-140.7,177.6-140.8,177.6-140.9,177.6C-140.9,177.6-140.9,177.6-140.9,177.6z"/>
			<path id="path14_1_" class="st1" d="M-133.6,191.3h-0.9v-11.6h-9.2v-0.9h9.6c0.2,0,0.4,0.2,0.4,0.4V191.3z"/>
			<path id="path16_1_" class="st1" d="M-134,193.4h-9.6v-0.9h9.2v-2h0.9v2.4C-133.6,193.2-133.8,193.4-134,193.4z"/>
		</g>
	</g>
	<g>
		<path id="path8_5_" class="st0" d="M-154.7,253.3v1.4c0,1.5-1.2,2.4-3.1,2.4h-9.5c-1.9,0-3.1-0.9-3.1-2.4v-22.8
			c0-1.6,1.4-2.9,3.1-2.9h9.5c1.7,0,3.1,1.3,3.1,2.9V253.3"/>
		<g id="Working_2_" transform="matrix(1.3197851,0,0,1.3197851,5.5120822,4.1571891)">
			<path id="path8_4_" class="st1" d="M-124.1,191.1h-6.4c-1.3,0-2.1-0.7-2.1-1.7V173c0-1.1,0.9-2.1,2.1-2.1h6.4
				c1.1,0,2.1,0.9,2.1,2.1v1.6h-0.9V173c0-0.7-0.5-1.2-1.2-1.2h-6.4c-0.7,0-1.2,0.6-1.2,1.2v16.3c0,0.6,0.4,0.9,1.2,0.9h6.4
				c0.8,0,1.2-0.3,1.2-0.9v-1h0.9v1C-122.1,190.4-122.9,191.1-124.1,191.1z"/>
			<rect id="rect10_2_" x="-127.7" y="172.5" class="st1" width="2.4" height="0.9"/>
			<path id="path12_2_" class="st1" d="M-129.3,173.7c-0.4,0-0.7-0.3-0.7-0.7c0-0.4,0.3-0.7,0.7-0.7c0.4,0,0.7,0.3,0.7,0.7
				C-128.6,173.4-128.9,173.7-129.3,173.7C-129.3,173.7-129.3,173.7-129.3,173.7z M-129.3,172.9c-0.1,0-0.1,0.1-0.1,0.1
				c0,0.1,0.1,0.1,0.1,0.1c0.1,0,0.1-0.1,0.1-0.1C-129.2,172.9-129.2,172.9-129.3,172.9C-129.3,172.9-129.3,172.9-129.3,172.9z"/>
			<path id="path14_2_" class="st1" d="M-122.1,186.6h-0.9V175h-9.2v-0.9h9.6c0.2,0,0.4,0.2,0.4,0.4V186.6z"/>
			<path id="path16_2_" class="st1" d="M-122.5,188.6h-9.6v-0.9h9.2v-2h0.9v2.4C-122.1,188.5-122.2,188.6-122.5,188.6z"/>
		</g>
	</g>
	<g>
		<path id="path8_7_" class="st0" d="M-187.2,265v1.4c0,1.5-1.2,2.4-3.1,2.4h-9.5c-1.9,0-3.1-0.9-3.1-2.4v-22.8
			c0-1.6,1.4-2.9,3.1-2.9h9.5c1.7,0,3.1,1.3,3.1,2.9V265"/>
		<g id="Working_3_" transform="matrix(1.3197851,0,0,1.3197851,5.5120822,4.1571891)">
			<path id="path8_6_" class="st1" d="M-148.7,199.9h-6.4c-1.3,0-2.1-0.7-2.1-1.7v-16.3c0-1.1,0.9-2.1,2.1-2.1h6.4
				c1.1,0,2.1,0.9,2.1,2.1v1.6h-0.9v-1.6c0-0.7-0.5-1.2-1.2-1.2h-6.4c-0.7,0-1.2,0.6-1.2,1.2v16.3c0,0.6,0.4,0.9,1.2,0.9h6.4
				c0.8,0,1.2-0.3,1.2-0.9v-1h0.9v1C-146.7,199.3-147.5,199.9-148.7,199.9z"/>
			<rect id="rect10_3_" x="-152.3" y="181.4" class="st1" width="2.4" height="0.9"/>
			<path id="path12_3_" class="st1" d="M-153.9,182.6c-0.4,0-0.7-0.3-0.7-0.7c0-0.4,0.3-0.7,0.7-0.7c0.4,0,0.7,0.3,0.7,0.7
				C-153.2,182.3-153.5,182.6-153.9,182.6C-153.9,182.6-153.9,182.6-153.9,182.6z M-153.9,181.8c-0.1,0-0.1,0.1-0.1,0.1
				s0.1,0.1,0.1,0.1c0.1,0,0.1-0.1,0.1-0.1C-153.8,181.8-153.8,181.7-153.9,181.8C-153.9,181.8-153.9,181.8-153.9,181.8z"/>
			<path id="path14_3_" class="st1" d="M-146.7,195.5h-0.9v-11.6h-9.2V183h9.6c0.2,0,0.4,0.2,0.4,0.4V195.5z"/>
			<path id="path16_3_" class="st1" d="M-147.1,197.5h-9.6v-0.9h9.2v-2h0.9v2.4C-146.7,197.4-146.9,197.5-147.1,197.5z"/>
		</g>
	</g>
	<g>
		<path id="path8_9_" class="st0" d="M-163.8,271v1.4c0,1.5-1.2,2.4-3.1,2.4h-9.5c-1.9,0-3.1-0.9-3.1-2.4v-22.8
			c0-1.6,1.4-2.9,3.1-2.9h9.5c1.7,0,3.1,1.3,3.1,2.9V271"/>
		<g id="Working_4_" transform="matrix(1.3197851,0,0,1.3197851,5.5120822,4.1571891)">
			<path id="path8_8_" class="st1" d="M-131.1,204.5h-6.4c-1.3,0-2.1-0.7-2.1-1.7v-16.3c0-1.1,0.9-2.1,2.1-2.1h6.4
				c1.1,0,2.1,0.9,2.1,2.1v1.6h-0.9v-1.6c0-0.7-0.5-1.2-1.2-1.2h-6.4c-0.7,0-1.2,0.6-1.2,1.2v16.3c0,0.6,0.4,0.9,1.2,0.9h6.4
				c0.8,0,1.2-0.3,1.2-0.9v-1h0.9v1C-129,203.9-129.8,204.5-131.1,204.5z"/>
			<rect id="rect10_4_" x="-134.6" y="186" class="st1" width="2.4" height="0.9"/>
			<path id="path12_4_" class="st1" d="M-136.2,187.2c-0.4,0-0.7-0.3-0.7-0.7c0-0.4,0.3-0.7,0.7-0.7c0.4,0,0.7,0.3,0.7,0.7
				C-135.5,186.8-135.8,187.2-136.2,187.2C-136.2,187.2-136.2,187.2-136.2,187.2z M-136.2,186.3c-0.1,0-0.1,0.1-0.1,0.1
				c0,0.1,0.1,0.1,0.1,0.1c0.1,0,0.1-0.1,0.1-0.1C-136.1,186.4-136.2,186.3-136.2,186.3C-136.2,186.3-136.2,186.3-136.2,186.3z"/>
			<path id="path14_4_" class="st1" d="M-129,200.1h-0.9v-11.6h-9.2v-0.9h9.6c0.2,0,0.4,0.2,0.4,0.4V200.1z"/>
			<path id="path16_4_" class="st1" d="M-129.4,202.1h-9.6v-0.9h9.2v-2h0.9v2.4C-129,201.9-129.2,202.1-129.4,202.1z"/>
		</g>
	</g>
	<g>
		<path id="path8_11_" class="st0" d="M-145.7,275v1.4c0,1.5-1.2,2.4-3.1,2.4h-9.5c-1.9,0-3.1-0.9-3.1-2.4v-22.8
			c0-1.6,1.4-2.9,3.1-2.9h9.5c1.7,0,3.1,1.3,3.1,2.9V275"/>
		<g id="Working_5_" transform="matrix(1.3197851,0,0,1.3197851,5.5120822,4.1571891)">
			<path id="path8_10_" class="st1" d="M-117.3,207.5h-6.4c-1.3,0-2.1-0.7-2.1-1.7v-16.3c0-1.1,0.9-2.1,2.1-2.1h6.4
				c1.1,0,2.1,0.9,2.1,2.1v1.6h-0.9v-1.6c0-0.7-0.5-1.2-1.2-1.2h-6.4c-0.7,0-1.2,0.6-1.2,1.2v16.3c0,0.6,0.4,0.9,1.2,0.9h6.4
				c0.8,0,1.2-0.3,1.2-0.9v-1h0.9v1C-115.2,206.8-116,207.5-117.3,207.5z"/>
			<rect id="rect10_5_" x="-120.9" y="189" class="st1" width="2.4" height="0.9"/>
			<path id="path12_5_" class="st1" d="M-122.5,190.1c-0.4,0-0.7-0.3-0.7-0.7c0-0.4,0.3-0.7,0.7-0.7c0.4,0,0.7,0.3,0.7,0.7
				C-121.7,189.8-122.1,190.1-122.5,190.1C-122.5,190.1-122.5,190.1-122.5,190.1z M-122.5,189.3c-0.1,0-0.1,0.1-0.1,0.1
				c0,0.1,0.1,0.1,0.1,0.1c0.1,0,0.1-0.1,0.1-0.1C-122.3,189.3-122.4,189.3-122.5,189.3C-122.5,189.3-122.5,189.3-122.5,189.3z"/>
			<path id="path14_5_" class="st1" d="M-115.2,203h-0.9v-11.6h-9.2v-0.9h9.6c0.2,0,0.4,0.2,0.4,0.4V203z"/>
			<path id="path16_5_" class="st1" d="M-115.7,205.1h-9.6v-0.9h9.2v-2h0.9v2.4C-115.2,204.9-115.4,205.1-115.7,205.1z"/>
		</g>
	</g>
</g>
</svg>
