<?xml version="1.0" encoding="UTF-8" standalone="no"?>
<svg
   xmlns:dc="http://purl.org/dc/elements/1.1/"
   xmlns:cc="http://creativecommons.org/ns#"
   xmlns:rdf="http://www.w3.org/1999/02/22-rdf-syntax-ns#"
   xmlns:svg="http://www.w3.org/2000/svg"
   xmlns="http://www.w3.org/2000/svg"
   id="svg4407"
   version="1.1"
   viewBox="0 0 75 75">
  <metadata
     id="metadata4411">
    <rdf:RDF>
      <cc:Work
         rdf:about="">
        <dc:format>image/svg+xml</dc:format>
        <dc:type
           rdf:resource="http://purl.org/dc/dcmitype/StillImage" />
        <dc:title>Amazon-Redshift_light-bg</dc:title>
      </cc:Work>
    </rdf:RDF>
  </metadata>
  <defs
     id="defs4380">
    <style
       id="style4378">.cls-1{fill:#693cc5;}.cls-2{fill:#fff;}</style>
  </defs>
  <title
     id="title4382">Amazon-Redshift_light-bg</title>
  <rect
     id="Purple_Light_BG"
     data-name="Purple Light BG"
     class="cls-1"
     width="75"
     height="75"
     x="0"
     y="0"
     style="fill:none" />
  <g
     id="Product_Icon"
     data-name="Product Icon">
    <path
       class="cls-2"
       d="m 37.5,62.5 c -8.24,0 -17,-2.39 -17,-6.82 V 19.32 h 2 v 36.36 c 0,2 5.71,4.82 15,4.82 9.29,0 15,-2.8 15,-4.82 V 19.32 h 2 v 36.36 c 0,4.43 -8.76,6.82 -17,6.82 z"
       id="path4385"
       style="fill:#ffffff" />
    <path
       class="cls-2"
       d="m 37.5,62.5 c -8.24,0 -17,-2.39 -17,-6.82 V 19.32 h 2 v 36.36 c 0,2 5.71,4.82 15,4.82 9.29,0 15,-2.8 15,-4.82 V 19.32 h 2 v 36.36 c 0,4.43 -8.76,6.82 -17,6.82 z"
       id="path4387"
       style="fill:#ffffff" />
    <path
       class="cls-2"
       d="m 37.5,26.13 c -8.24,0 -17,-2.39 -17,-6.81 0,-4.42 8.76,-6.82 17,-6.82 8.24,0 17,2.39 17,6.82 0,4.43 -8.76,6.81 -17,6.81 z m 0,-11.63 c -9.29,0 -15,2.8 -15,4.82 0,2.02 5.71,4.81 15,4.81 9.29,0 15,-2.8 15,-4.81 0,-2.01 -5.71,-4.82 -15,-4.82 z"
       id="path4389"
       style="fill:#ffffff" />
    <rect
       class="cls-2"
       x="36.48"
       y="38.02"
       width="2"
       height="6.2199998"
       transform="rotate(-77.19,37.473236,41.128377)"
       id="rect4391"
       style="fill:#ffffff" />
    <rect
       class="cls-2"
       x="42.049999"
       y="35.779999"
       width="6.3000002"
       height="2"
       transform="rotate(-68.46,45.198645,36.782787)"
       id="rect4393"
       style="fill:#ffffff" />
    <rect
       class="cls-2"
       x="27.4"
       y="43.59"
       width="5.1999998"
       height="2"
       transform="rotate(-66.89,30.00251,44.584356)"
       id="rect4395"
       style="fill:#ffffff" />
    <path
       class="cls-2"
       d="m 28,52.77 a 3.5,3.5 0 1 1 3.5,-3.5 3.5,3.5 0 0 1 -3.5,3.5 z m 0,-5 a 1.5,1.5 0 1 0 1.5,1.5 1.5,1.5 0 0 0 -1.5,-1.5 z"
       id="path4397"
       style="fill:#ffffff" />
    <path
       class="cls-2"
       d="m 32,43.39 a 3.5,3.5 0 1 1 3.5,-3.5 3.5,3.5 0 0 1 -3.5,3.5 z m 0,-5 a 1.5,1.5 0 1 0 1.5,1.5 v 0 A 1.5,1.5 0 0 0 32,38.39 Z"
       id="path4399"
       style="fill:#ffffff" />
    <path
       class="cls-2"
       d="M 43,45.5 A 3.5,3.5 0 1 1 46.5,42 3.5,3.5 0 0 1 43,45.5 Z m 0,-5 A 1.5,1.5 0 1 0 44.5,42 1.5,1.5 0 0 0 43,40.5 Z"
       id="path4401"
       style="fill:#ffffff" />
    <path
       class="cls-2"
       d="m 47,35 a 3.5,3.5 0 1 1 3.5,-3.5 v 0.05 A 3.51,3.51 0 0 1 47,35 Z m 0,-5 A 1.5,1.5 0 1 0 48.5,31.55 1.5,1.5 0 0 0 47,30 Z"
       id="path4403"
       style="fill:#ffffff" />
  </g>
</svg>
