<?xml version="1.0" encoding="utf-8"?>
<!-- Generator: Adobe Illustrator 19.0.0, SVG Export Plug-In . SVG Version: 6.00 Build 0)  -->
<svg version="1.1" id="Product_Icon" xmlns="http://www.w3.org/2000/svg" xmlns:xlink="http://www.w3.org/1999/xlink" x="0px"
	 y="0px" viewBox="-325 237 140 140" style="enable-background:new -325 237 140 140;" xml:space="preserve">
<style type="text/css">
	.st0{fill:#FFFFFF;}
</style>
<g id="Product_Icon-2">
	<path class="st0" d="M-210.4,311.9c-0.6-3-3.9-5-6.2-6.5c-0.7-0.6-2.8-1.1-2.8-1.9c0-0.6,0-0.9,0.2-1.3l1.9-13.4
		c0.6-3.9,1.1-7.8,1.7-11.8c0.6-3.5-1.3-6-4.3-8c-6-4.1-13.8-5.8-20.9-7.1c-9-1.5-17.9-1.7-26.9-0.9c-8,0.6-15.9,2.4-23.3,5.6
		c-3.9,1.9-9.1,4.9-8.6,9.9c1.9,15.1,4.1,30.2,6.2,45.4c0.9,6.9,1.9,13.8,2.8,20.7c0.4,2.8,2.1,5,4.7,6.2c5.8,3.2,12.9,4.1,19.4,4.7
		c8.6,0.7,17.2,0.4,25.8-1.1c5.4-0.9,15.3-2.6,16.2-9.3c1.1-8.4,2.2-16.6,3.4-25l0.4-2.6C-218,316.1-209.3,317.6-210.4,311.9z
		 M-257.8,264.1c11.2,0,24.1,1.3,34.2,6.7c1.5,0.9,5.2,2.8,4.1,5c-1.1,2.2-4.5,3.4-6.5,4.3c-3,1.1-6,1.9-9,2.4
		c-13.3,2.6-27.1,3-40.5,0.7c-6-0.6-11.9-2.4-17.4-5c-1.3-0.7-3.5-2.2-3-3.9c0.6-0.9,1.3-1.9,2.2-2.4c4.1-2.6,8.6-4.5,13.4-5.4
		C-272.9,264.8-265.3,264.1-257.8,264.1z M-228.5,342.8c-0.4,2.2-3.9,3.4-5.6,3.9c-3.5,1.1-7.3,2.1-11,2.4c-8.2,1.1-16.6,1.1-25,0
		c-5.2-0.4-10.3-1.9-14.9-4.1c-1.3-0.6-2.2-1.9-2.2-3.2c-1.9-14.7-3.9-29.7-6-44.4l-2.2-16.1c4.3,2.4,8.8,3.9,13.6,4.9
		c5,1.1,10.3,1.7,15.5,2.1c10.3,0.7,20.5,0.2,30.6-1.7c5.4-0.7,10.6-2.4,15.3-5l-3.7,29.1c-9.5-3.2-18.7-6.9-27.6-11.2
		c-0.4-0.2-0.7-0.4-1.1-0.6c-0.6-0.4-0.4-0.2-0.6-0.7c-0.6-1.1-0.6-1.9-1.5-2.8c-1.9-1.5-4.5-1.1-6,0.6c-1.5,1.9-1.1,4.5,0.6,6
		c0.7,0.7,1.9,0.9,3,0.9c0.6-0.2,1.3-0.4,1.9-0.6c0.7-0.2,0.7-0.2,1.5,0.2c9.1,4.5,18.5,8.2,28,11.6c1.5,0.6,1.5,0,1.5,1.1
		c0,0.9-0.2,1.9-0.4,2.6l-1.1,9L-228.5,342.8z M-257.2,298.6c0,0.6-0.7,0.4-0.9,0.2C-258.4,298.6-257.2,297.9-257.2,298.6z
		 M-220.5,311.7l0.6-4.1c1.9,1.1,5,2.6,6,4.9C-215.8,313.2-218.8,312-220.5,311.7z"/>
</g>
</svg>
