<?xml version="1.0" encoding="utf-8"?>
<!-- Generator: Adobe Illustrator 19.0.0, SVG Export Plug-In . SVG Version: 6.00 Build 0)  -->
<svg version="1.1" xmlns="http://www.w3.org/2000/svg" xmlns:xlink="http://www.w3.org/1999/xlink" x="0px" y="0px"
	 viewBox="0 0 500 500" style="enable-background:new 0 0 500 500;" xml:space="preserve">
<style type="text/css">
	.st0{fill:#D6242D;}
	.st1{fill:#FFFFFF;}
</style>
<g id="Layer_1">
	<rect id="XMLID_1_" class="st0" width="500" height="500"/>
</g>
<g id="Layer_2">
	<g id="Product_Icon-2">
		<path id="XMLID_9_" class="st1" d="M369.9,99.1v158.7c-5.3-0.5-10.6-0.5-15.9,0V104.9l-143.3-46L67.4,112.5v163.2
			c1,28.6,7.2,56.8,18.3,83.2c23.9,54.2,65.7,81.7,125,81.7c24.2,0.5,48.2-4.9,69.7-15.9l10.5,11.9l0,0v0.8
			c-24.6,13.2-52.3,19.8-80.2,19.1c-82.5,0-121.4-49.6-139.3-91.5c-12.1-28.2-18.9-58.5-19.9-89.2V107c0-3.3,2.1-6.3,5.2-7.5
			L207.9,43c1.7-0.6,3.6-0.6,5.3,0l151.2,48.6C367.7,92.7,369.9,95.7,369.9,99.1z"/>
		<path class="st1" d="M324.9,126.7L213.5,84.9c-1.8-0.6-3.8-0.6-5.6,0L96.5,126.7c-3.1,1.2-5.2,4.2-5.2,7.5v157.1c0,0.5,0,1,0,1.5
			c4.7,21.1,12.5,41.3,23.2,60.1c23.4,40.3,56.6,61.6,96.1,61.6c19.4,0.3,38.5-5.2,54.8-15.9c-2-5.2-3.6-10.5-4.8-15.9l-1.9,1.4
			c-11.7,8.3-25.5,13.3-39.8,14.5V104l95.5,35.8v129.5c5.1-2.7,10.4-4.9,15.9-6.6V134C330.2,130.7,328.1,127.8,324.9,126.7z
			 M107.2,290.5V139.7l95.5-35.8v294.5C131.1,391.9,109.1,299.5,107.2,290.5z"/>
		<polygon id="XMLID_5_" class="st1" points="401.7,351.3 401.7,367.3 369.9,367.3 369.9,399.1 354,399.1 354,367.3 322.1,367.3 
			322.1,351.3 354,351.3 354,319.5 369.9,319.5 369.9,351.3 		"/>
		<path class="st1" d="M361.9,448.5c-48.4,0-87.6-39.2-87.6-87.6s39.2-87.6,87.6-87.6s87.6,39.2,87.6,87.6S410.3,448.5,361.9,448.5z
			 M361.9,289.3c-39.6,0-71.6,32.1-71.6,71.6s32.1,71.6,71.6,71.6s71.6-32.1,71.6-71.6l0,0C433.6,321.3,401.5,289.3,361.9,289.3z"/>
	</g>
</g>
</svg>
