<?xml version="1.0" encoding="utf-8"?>
<!-- Generator: Adobe Illustrator 19.0.0, SVG Export Plug-In . SVG Version: 6.00 Build 0)  -->
<svg version="1.1" xmlns="http://www.w3.org/2000/svg" xmlns:xlink="http://www.w3.org/1999/xlink" x="0px" y="0px"
	 viewBox="0 0 500 500" style="enable-background:new 0 0 500 500;" xml:space="preserve">
<style type="text/css">
	.st0{fill:#00909D;}
	.st1{fill:#FFFFFF;}
</style>
<g id="Layer_1">
	<rect id="XMLID_1_" class="st0" width="500" height="500"/>
</g>
<g id="Layer_2">
	<g id="XMLID_23_">
		<g id="XMLID_52_">
			<g id="XMLID_53_">
				<path id="XMLID_22_" class="st1" d="M380.3,388.4c-4.5,0-8.1,3.6-8.1,8.1s3.6,8.1,8.1,8.1c4.5,0,8.1-3.6,8.1-8.1
					S384.8,388.4,380.3,388.4z"/>
			</g>
		</g>
		<g id="XMLID_32_">
			<g id="XMLID_33_">
				<path id="XMLID_34_" class="st1" d="M404.7,80.2V66c0-13.5-11-24.4-24.4-24.4H119.7c-13.5,0-24.4,11-24.4,24.4v14.2
					c-53.1,98.1-53.7,95.2-53.7,99.8c0,0,0,0,0,0v16.3c0,14.1,8.2,27.2,21.2,34.7v219.4c0,4.5,3.6,8.1,8.1,8.1h358.3
					c4.5,0,8.1-3.6,8.1-8.1V231c12.9-7.5,21.2-20.7,21.2-34.7V180c0,0,0,0,0,0C458.5,175.3,457.3,177.3,404.7,80.2z M436.6,171.8
					h-50.4L359,90.4h32.7L436.6,171.8z M323.3,188.1h48.9v8.1c0,13.5-11,24.4-24.4,24.4c-13.5,0-24.4-11-24.4-24.4V188.1z
					 M322,171.8l-13.6-81.4h33.4l27.1,81.4H322z M111.6,66c0-4.5,3.7-8.1,8.1-8.1h260.6c4.5,0,8.1,3.7,8.1,8.1v8.1
					c-7.8,0-269.1,0-276.9,0V66z M307,188.1v8.1c0,13.5-11,24.4-24.4,24.4c-13.5,0-24.4-11-24.4-24.4v-8.1H307z M258.1,171.8V90.4
					H292l13.6,81.4H258.1z M194.5,171.8L208,90.4h33.8v81.4H194.5z M241.9,188.1v8.1c0,13.5-11,24.4-24.4,24.4
					c-13.5,0-24.4-11-24.4-24.4v-8.1H241.9z M131,171.8l27.1-81.4h33.4L178,171.8H131z M176.7,188.1v8.1c0,13.5-11,24.4-24.4,24.4
					c-13.5,0-24.4-11-24.4-24.4v-8.1H176.7z M108.2,90.4H141l-27.1,81.4H63.4L108.2,90.4z M57.8,196.3v-8.1h53.7v8.1
					c0,12.8-12.8,24.4-26.9,24.4c-3.5,0-7.2-0.8-10.6-2.2C64.3,214.3,57.8,205.4,57.8,196.3z M209.3,442.2h-81.4v-70h81.4V442.2z
					 M209.3,355.9h-81.4v-70h81.4V355.9z M421,442.2H225.6V277.7c0-4.5-3.6-8.1-8.1-8.1h-97.7c-4.5,0-8.1,3.6-8.1,8.1v164.5H79
					V236.6c1.9,0.3,3.8,0.4,5.7,0.4c10.7,0,21.6-4.2,29.7-11.7c1.8-1.6,3.4-3.4,4.9-5.2c7.4,10.2,19.4,16.9,33,16.9
					c13.3,0,25.1-6.4,32.6-16.3c7.4,9.9,19.3,16.3,32.6,16.3s25.1-6.4,32.6-16.3c7.4,9.9,19.3,16.3,32.6,16.3
					c13.3,0,25.1-6.4,32.6-16.3c7.4,9.9,19.3,16.3,32.6,16.3c13.6,0,25.6-6.7,33-16.9c1.5,1.8,3.1,3.6,4.9,5.2
					c8.2,7.4,19,11.7,29.7,11.7c1.9,0,3.8-0.1,5.7-0.4V442.2z M442.2,196.3c0,9.4-6.8,18.4-16.8,22.5c-3.3,1.3-6.7,2-10,2
					c-14.1,0-26.9-11.6-26.9-24.4v-8.1h53.7V196.3z"/>
			</g>
		</g>
		<g id="XMLID_27_">
			<g id="XMLID_28_">
				<path id="XMLID_29_" class="st1" d="M396.6,355.9h-8.1v-78.2c0-4.5-3.6-8.1-8.1-8.1h-97.7c-4.5,0-8.1,3.6-8.1,8.1v78.2h-8.1
					c-4.5,0-8.1,3.6-8.1,8.1c0,4.5,3.6,8.1,8.1,8.1h130.3c4.5,0,8.1-3.6,8.1-8.1C404.7,359.5,401.1,355.9,396.6,355.9z M372.2,355.9
					h-81.4v-70h81.4V355.9z"/>
			</g>
		</g>
		<g id="XMLID_24_">
			<g id="XMLID_25_">
				<path id="XMLID_2_" class="st1" d="M347.7,388.4h-65.1c-4.5,0-8.1,3.6-8.1,8.1s3.6,8.1,8.1,8.1h65.1c4.5,0,8.1-3.6,8.1-8.1
					S352.2,388.4,347.7,388.4z"/>
			</g>
		</g>
	</g>
</g>
</svg>
