<?xml version="1.0" encoding="utf-8"?>
<!-- Generator: Adobe Illustrator 19.0.0, SVG Export Plug-In . SVG Version: 6.00 Build 0)  -->
<svg version="1.1" id="Layer_1" xmlns="http://www.w3.org/2000/svg" xmlns:xlink="http://www.w3.org/1999/xlink" x="0px" y="0px"
	 viewBox="-145 57 500 500" style="enable-background:new -145 57 500 500;" xml:space="preserve">
<style type="text/css">
	.st0{fill:#FFFFFF;}
</style>
<g id="Layer_2">
	<g id="XMLID_23_">
		<g id="XMLID_52_">
			<g id="XMLID_53_">
				<path id="XMLID_22_" class="st0" d="M235.3,445.4c-4.5,0-8.1,3.6-8.1,8.1s3.6,8.1,8.1,8.1s8.1-3.6,8.1-8.1
					S239.8,445.4,235.3,445.4z"/>
			</g>
		</g>
		<g id="XMLID_32_">
			<g id="XMLID_33_">
				<path id="XMLID_34_" class="st0" d="M259.7,137.2V123c0-13.5-11-24.4-24.4-24.4H-25.3c-13.5,0-24.4,11-24.4,24.4v14.2
					c-53.1,98.1-53.7,95.2-53.7,99.8l0,0v16.3c0,14.1,8.2,27.2,21.2,34.7v219.4c0,4.5,3.6,8.1,8.1,8.1h358.3c4.5,0,8.1-3.6,8.1-8.1
					V288c12.9-7.5,21.2-20.7,21.2-34.7V237l0,0C313.5,232.3,312.3,234.3,259.7,137.2z M291.6,228.8h-50.4L214,147.4h32.7
					L291.6,228.8z M178.3,245.1h48.9v8.1c0,13.5-11,24.4-24.4,24.4c-13.5,0-24.4-11-24.4-24.4v-8.1H178.3z M177,228.8l-13.6-81.4
					h33.4l27.1,81.4H177z M-33.4,123c0-4.5,3.7-8.1,8.1-8.1h260.6c4.5,0,8.1,3.7,8.1,8.1v8.1c-7.8,0-269.1,0-276.9,0L-33.4,123
					L-33.4,123z M162,245.1v8.1c0,13.5-11,24.4-24.4,24.4c-13.5,0-24.4-11-24.4-24.4v-8.1H162z M113.1,228.8v-81.4H147l13.6,81.4
					H113.1z M49.5,228.8L63,147.4h33.8v81.4H49.5z M96.9,245.1v8.1c0,13.5-11,24.4-24.4,24.4c-13.5,0-24.4-11-24.4-24.4v-8.1H96.9z
					 M-14,228.8l27.1-81.4h33.4L33,228.8H-14z M31.7,245.1v8.1c0,13.5-11,24.4-24.4,24.4c-13.5,0-24.4-11-24.4-24.4v-8.1H31.7z
					 M-36.8,147.4H-4l-27.1,81.4h-50.5L-36.8,147.4z M-87.2,253.3v-8.1h53.7v8.1c0,12.8-12.8,24.4-26.9,24.4
					c-3.5,0-7.2-0.8-10.6-2.2C-80.7,271.3-87.2,262.4-87.2,253.3z M64.3,499.2h-81.4v-70h81.4V499.2z M64.3,412.9h-81.4v-70h81.4
					V412.9z M276,499.2H80.6V334.7c0-4.5-3.6-8.1-8.1-8.1h-97.7c-4.5,0-8.1,3.6-8.1,8.1v164.5H-66V293.6c1.9,0.3,3.8,0.4,5.7,0.4
					c10.7,0,21.6-4.2,29.7-11.7c1.8-1.6,3.4-3.4,4.9-5.2c7.4,10.2,19.4,16.9,33,16.9c13.3,0,25.1-6.4,32.6-16.3
					c7.4,9.9,19.3,16.3,32.6,16.3s25.1-6.4,32.6-16.3c7.4,9.9,19.3,16.3,32.6,16.3c13.3,0,25.1-6.4,32.6-16.3
					c7.4,9.9,19.3,16.3,32.6,16.3c13.6,0,25.6-6.7,33-16.9c1.5,1.8,3.1,3.6,4.9,5.2c8.2,7.4,19,11.7,29.7,11.7
					c1.9,0,3.8-0.1,5.7-0.4v205.6H276z M297.2,253.3c0,9.4-6.8,18.4-16.8,22.5c-3.3,1.3-6.7,2-10,2c-14.1,0-26.9-11.6-26.9-24.4
					v-8.1h53.7L297.2,253.3L297.2,253.3z"/>
			</g>
		</g>
		<g id="XMLID_27_">
			<g id="XMLID_28_">
				<path id="XMLID_29_" class="st0" d="M251.6,412.9h-8.1v-78.2c0-4.5-3.6-8.1-8.1-8.1h-97.7c-4.5,0-8.1,3.6-8.1,8.1v78.2h-8.1
					c-4.5,0-8.1,3.6-8.1,8.1s3.6,8.1,8.1,8.1h130.3c4.5,0,8.1-3.6,8.1-8.1C259.7,416.5,256.1,412.9,251.6,412.9z M227.2,412.9h-81.4
					v-70h81.4V412.9z"/>
			</g>
		</g>
		<g id="XMLID_24_">
			<g id="XMLID_25_">
				<path id="XMLID_2_" class="st0" d="M202.7,445.4h-65.1c-4.5,0-8.1,3.6-8.1,8.1s3.6,8.1,8.1,8.1h65.1c4.5,0,8.1-3.6,8.1-8.1
					S207.2,445.4,202.7,445.4z"/>
			</g>
		</g>
	</g>
</g>
</svg>
