<?xml version="1.0" encoding="utf-8"?>
<!-- Generator: Adobe Illustrator 19.0.0, SVG Export Plug-In . SVG Version: 6.00 Build 0)  -->
<svg version="1.1" xmlns="http://www.w3.org/2000/svg" xmlns:xlink="http://www.w3.org/1999/xlink" x="0px" y="0px"
     viewBox="-184 95.3 422.7 422.7" style="enable-background:new -184 95.3 422.7 422.7;" xml:space="preserve">
<style type="text/css">
	.st0{fill:#FFFFFF;}
</style>
    <path class="st0" d="M80.6,375.6v-6.5c1.8-1.5,3.6-3.1,5.3-4.8c13.5-14.9,22.1-33.7,24.4-53.7c12.2-1.9,23.1-8.4,30.6-18.2
	c10.2-14.4,11.1-35.2,2.6-61.3c-0.5-1.5-1.5-2.8-2.8-3.7l-3.9-2.6c0.6-23.5-7.6-46.4-22.8-64.3c-19-21.3-48-32.1-86.6-32.3
	c-38.5,0-67.6,10.9-86.6,32c-15.3,17.9-23.4,40.8-22.8,64.3l-3.9,2.6c-1.3,0.9-2.3,2.2-2.8,3.7c-8.5,26.2-7.6,46.8,2.6,61.3
	c7.4,9.9,18.4,16.5,30.6,18.4c2.3,20,10.9,38.8,24.4,53.8c1.7,1.7,3.4,3.3,5.3,4.8v6.5c-27,5.2-134.7,30.5-132.9,102.4
	c0,3.9,3.2,7,7,7h358.1c3.9,0,7-3.2,7-7C215.3,406.1,107.6,380.8,80.6,375.6z M-59.8,294.9c-6-2-11.2-5.8-14.9-10.9l0.4,0.1
	c-7-10.3-7.7-25.9-1.4-46.4l5.1-3.5c2.2-1.4,3.4-4,3.1-6.6c-1.2-21.1,5.7-41.8,19.2-58c15.9-18,41.5-27.1,75.7-27.2
	c34.2-0.1,59.8,9.2,76,27.2c13.5,16.2,20.3,36.9,19.2,58c-0.3,2.6,0.9,5.1,3.1,6.6l5.1,3.5c6.3,20.5,5.8,36.1-1.4,46.4
	c-3.8,5.1-9,8.9-15,10.9c8.5-9.7,12.7-22.4,11.5-35.2c-1.3-7.7-5.3-14.7-11.3-19.7c-3-70.5-52.4-78.3-73.7-78.3c-4.5,0-9,0.3-13.5,1
	c-4.5-0.7-9-1-13.5-1c-21.1,0-70.5,7.7-73.7,78.3c-6,5-10.1,11.9-11.5,19.7C-72.5,272.4-68.3,285.2-59.8,294.9z M100.4,237.1
	c-29.6,1.7-58.9-5.7-84.2-21.1c-2.9-2-6.8-1.6-9.2,0.9C-7,232-32.7,235.5-45.1,236.3c3.8-49.8,34-60.7,59.3-60.7c4,0,8.1,0.3,12,1
	c0.9,0.2,1.9,0.2,2.8,0c4-0.7,8-1,12-1c25.2,0,55.4,11.1,59,61.4L100.4,237.1z M-42.6,296.2l0.3,0.1c0-1.7-0.6-3.4-1.8-4.7
	c-9.7-11.1-14.1-21.1-12.9-29.4c0.6-4.6,2.9-8.9,6.4-11.9c9.3,0,42.3-1.8,63.4-20c23.8,13.7,50.7,21,78.2,21.1c4.7,0,9.5,0,14.5-0.8
	c3.5,2.9,5.7,7.1,6.3,11.6c1.2,8.2-3.2,18.4-12.9,29.4c-1.1,1.3-1.8,3-1.8,4.7c0,0,0,1.4,0,3.7l-41,22c-8.1-7.7-21-7.4-28.7,0.8
	c-7.7,8.1-7.4,21,0.8,28.7c8.1,7.7,21,7.4,28.7-0.8c3.6-3.8,5.6-8.8,5.6-14c0-0.6,0-1.3,0-1.9l32.3-17.3
	c-2.8,13.9-9.3,26.8-18.9,37.2c-12.5,12-29.4,18.3-46.7,17.5h-3.5c-17.3,0.9-34.1-5.4-46.6-17.4C-43.1,332.5-42.6,296.5-42.6,296.2z
	 M48.4,336.6c0,3.5-2.8,6.3-6.3,6.3c-3.5,0-6.3-2.8-6.3-6.3s2.8-6.3,6.3-6.3S48.4,333.2,48.4,336.6z M20.3,470.5h-164.7
	c5.6-52.9,91.6-75,118.5-80.7v12.6c0,16,19.4,28.2,46.2,30.2V470.5z M-11.9,402.4v-0.2v-24.1c11.7,5.4,24.5,8.1,37.4,7.9h3.5
	c12.9,0.2,25.7-2.5,37.4-7.9v24.3c0,6.7-15.3,16.3-39.2,16.3S-11.9,409.1-11.9,402.4z M34.4,470.7v-38.2
	c26.8-1.8,46.2-14.1,46.2-30.2V390c27.1,5.6,112.7,27.8,118.5,80.7L34.4,470.7L34.4,470.7z"/>
</svg>
