<svg xmlns="http://www.w3.org/2000/svg" viewBox="0 0 500 500">
    <style type="text/css">
        .st1{fill:#FFFFFF;}
    </style>
    <g>
        <circle id="XMLID_5_" class="st1" cx="251.5" cy="119.9" r="96.2"/>
        <path id="XMLID_7_" class="st1" d="M292.3,222.6h-81.6c-67.9,0-123.2,55.2-123.2,123.2v99.8l0.3,1.6l6.9,2.2
				c64.8,20.2,121.1,27,167.5,27c90.5,0,143-25.8,146.2-27.5l6.4-3.3h0.7v-99.8C415.4,277.9,360.2,222.6,292.3,222.6z M270.5,416.4
				l-17.6,25.8c-0.2,0.4-0.6,0.6-1,0.6l0,0c-0.4,0-0.8-0.2-1-0.6l-16.4-25.8c-0.1-0.2-0.2-0.5-0.2-0.8l8.2-125.2
				c0-0.7,0.6-1.2,1.3-1.2h17c0.7,0,1.2,0.5,1.3,1.2l8.8,125.2C270.7,415.9,270.6,416.1,270.5,416.4z M262.5,285.4h-20.2l-17.6-36.3
				c0-3.5,2.8-6.3,6.3-6.3h42.1c3.5,0,6.3,2.8,6.3,6.3L262.5,285.4z"/>


        <g transform="scale(0.6,0.6)">
            <g transform="translate(135,-100)">
                <g class="st1">
                    <path d="M44.581,458.144h24.352c-4.621,92.173,91.928,110.398,167.027,107.491c3.103,5.331,8.813,8.947,15.422,8.947h76.42
					c9.891,0,17.908-8.017,17.908-17.907v-15.777c0-9.89-8.018-17.907-17.908-17.907h-76.42c-8.715,0-15.961,6.23-17.564,14.48
					c-60.777,3.151-139.383-5.937-136.262-79.321h32.957c8.409,0,15.22-6.817,15.22-15.227V264.574c0-8.409-6.818-15.227-15.22-15.227
					H84.392C90.408,139.585,181.369,48.954,288.39,48.954c107.02,0,197.982,90.625,203.998,200.393h-48.324
					c-8.408,0-15.221,6.818-15.221,15.227v178.349c0,8.409,6.812,15.227,15.221,15.227h85.938c8.408,0,15.227-6.817,15.227-15.227
					V264.574c0-3.776-1.426-7.185-3.703-9.847C538.202,116.023,423.685,0,288.39,0C153.798,0,39.765,114.83,35.309,252.579
					c-3.599,2.778-5.955,7.093-5.955,11.995v178.349C29.354,451.325,36.172,458.144,44.581,458.144z"/>
                </g>
            </g>
        </g>
    </g>
</svg>
