<?xml version="1.0" encoding="utf-8"?>
<!-- Generator: Adobe Illustrator 19.0.0, SVG Export Plug-In . SVG Version: 6.00 Build 0)  -->
<svg version="1.1" id="Layer_1" xmlns="http://www.w3.org/2000/svg" xmlns:xlink="http://www.w3.org/1999/xlink" x="0px" y="0px"
	 viewBox="-145 57 500 500" style="enable-background:new -145 57 500 500;" xml:space="preserve">
<style type="text/css">
	.st0{fill:#FFFFFF;}
	.st1{fill:#D4270E;}
</style>
<g>
	<circle class="st0" cx="125.7" cy="130.8" r="35.3"/>
	<path class="st0" d="M170.4,205.4c-6.1,5-11.9,11.2-17.3,18.1c-8.2-8.6-19.9-14-32.7-14c-9.1,0-17.5,2.7-24.6,7.3
		c-4-5.4-8.2-10.4-12.6-14.8c0,0,0,0,0,0c12.3-16.6,27.7-29.2,42.5-29.2C141.4,172.7,157.7,187.2,170.4,205.4z"/>

	<circle class="st0" cx="200.7" cy="160.8" r="35.3"/>
	<path class="st0" d="M226.1,270.8c-9.4,6.1-18.5,15.3-26.4,25.9h-0.5c-14.1,0-26.7,6.5-35,16.6c-6.6-7.8-13.7-14.5-21.1-19.3
		c13.5-7.8,22.6-22.5,22.6-39.2c0-8.7-2.5-16.9-6.8-23.8c12.2-16.1,27.3-28.3,41.8-28.3c3.8,0,7.7,0.9,11.6,2.5
		c-5.4,7.5-8.6,16.6-8.6,26.5C203.7,248.4,212.7,262.9,226.1,270.8z"/>

	<circle class="st0" cx="-42.4" cy="154.9" r="35.3"/>
	<path class="st0" d="M-52.5,279c0,16.9,9.3,31.7,23,39.5c-37.4,3.1-80.2-7.4-80.2-31.7c0-30,35.1-90,67.3-90
		c17.5,0,35.8,18,48.9,39c-4.3-1.4-8.9-2.1-13.7-2.1C-32.2,233.7-52.5,254-52.5,279z"/>

	<circle class="st0" cx="199.2" cy="342" r="35.3"/>
	<path class="st0" d="M266.5,473.9c0,38.8-110.1,42.5-131.1,11.1c3.8-4.5,6-9.7,6-15.6c0-6.2-1.4-13.5-3.8-21.5
				c11.2-29.7,37.2-64,61.6-64C231.4,383.9,266.5,445,266.5,473.9z"/>

	<circle class="st1" cx="46.1" cy="150.8" r="35.3"/>
	<path class="st1" d="M97.6,293.9c-1.9,1.2-3.8,2.6-5.7,4c-7.9-6.7-18.1-10.8-29.3-10.8c-9.9,0-19.1,3.2-26.5,8.6
		c0.2-1.3,0.4-2.6,0.4-4c0-0.1,0-0.3,0-0.4c1.1-3.9,1.7-8.1,1.7-12.4c0-14-6.4-26.5-16.4-34.9c-4.5-8.7-9.9-17.4-15.9-25.2
		c11.9-15.1,26.4-26.3,40.2-26.3c14.8,0,30.3,13,42.6,29.7c-8.4,8.2-13.6,19.7-13.6,32.4C75.1,271.5,84.2,286.1,97.6,293.9z"/>

	<circle class="st1" cx="120.4" cy="254.8" r="35.3"/>
	<path class="st1" d="M176.3,381.1c-12.3,8-24,21.3-33.5,36.1c-5.7,0.9-11.6,1.4-17.6,1.6c-10.3-19-24.6-37.2-39.9-47.1
		c13.5-7.8,22.6-22.5,22.6-39.2c0-10.4-3.5-20-9.4-27.6c7.1-5.1,14.6-8.2,21.9-8.2c13.2,0,27,10.3,38.5,24.5
		c-3.2,6.2-5,13.3-5,20.8C153.9,358.7,162.9,373.2,176.3,381.1z"/>

	<circle class="st1" cx="249" cy="231.7" r="35.3"/>
	<path class="st1" d="M316.3,363.6c0,23.7-41,34.3-77.7,31.8c-5.3-5.6-10.9-10.5-16.6-14.3c13.5-7.8,22.5-22.4,22.5-39.2
		c0-21.2-14.6-39-34.3-44c11.6-14.2,25.4-24.5,38.8-24.5C281.2,273.6,316.3,334.7,316.3,363.6z"/>

	<circle class="st1" cx="-7.2" cy="279" r="35.3"/>
	<path class="st1" d="M39.8,371.7C18,385.7-1.9,416.5-11,443c-32.3-0.8-63.5-11.5-63.5-32.1c0-30,35.1-90,67.3-90
		c8.2,0,16.6,4,24.5,10.3c0,0.4,0,0.9,0,1.3C17.3,349.2,26.3,363.8,39.8,371.7z"/>

	<circle class="st1" cx="62.6" cy="332.5" r="35.3"/>
	<path class="st1" d="M129.9,464.4c0-28.9-35.1-90-67.3-90s-67.3,60-67.3,90C-4.7,507.3,129.9,507.3,129.9,464.4z"/>
</g>
</svg>
