<?xml version="1.0" encoding="utf-8"?>
<!-- Generator: Adobe Illustrator 19.0.0, SVG Export Plug-In . SVG Version: 6.00 Build 0)  -->
<svg version="1.1" xmlns="http://www.w3.org/2000/svg" xmlns:xlink="http://www.w3.org/1999/xlink" x="0px" y="0px"
	 viewBox="0 0 500 500" style="enable-background:new 0 0 500 500;" xml:space="preserve">
<style type="text/css">
	.st0{fill:#004260;}
	.st1{fill:#FFFFFF;}
	.st2{fill:#D4270E;}
</style>
<g id="Layer_1">
	<g id="Layer_1_1_">
		<rect id="XMLID_1_" x="-0.5" class="st0" width="500" height="500"/>
	</g>
</g>
<g id="Layer_2">
	<g>
		<circle class="st0" cx="270.7" cy="73.8" r="45.3"/>
		<path class="st0" d="M349.5,210.6c0-33.9-41-105.4-78.8-105.4s-78.8,70.3-78.8,105.4C191.9,260.8,349.5,260.8,349.5,210.6z"/>
		<g>
			<circle class="st1" cx="270.7" cy="73.8" r="35.3"/>
			<path class="st1" d="M338,205.7c0-28.9-35.1-90-67.3-90s-67.3,60-67.3,90C203.4,248.6,338,248.6,338,205.7z"/>
		</g>
	</g>
	<g>
		<circle class="st0" cx="345.7" cy="103.8" r="45.3"/>
		<path class="st0" d="M424.5,240.6c0-33.9-41-105.4-78.8-105.4s-78.8,70.3-78.8,105.4C266.9,290.8,424.5,290.8,424.5,240.6z"/>
		<g>
			<circle class="st1" cx="345.7" cy="103.8" r="35.3"/>
			<path class="st1" d="M413,235.7c0-28.9-35.1-90-67.3-90s-67.3,60-67.3,90C278.4,278.6,413,278.6,413,235.7z"/>
		</g>
	</g>
	<g>
		<circle class="st0" cx="191.1" cy="93.8" r="45.3"/>
		<path class="st0" d="M269.9,230.6c0-33.9-41-105.4-78.8-105.4s-78.8,70.3-78.8,105.4C112.3,280.8,269.9,280.8,269.9,230.6z"/>
		<g>
			<circle class="st2" cx="191.1" cy="93.8" r="35.3"/>
			<path class="st2" d="M258.4,225.7c0-28.9-35.1-90-67.3-90s-67.3,60-67.3,90C123.8,268.6,258.4,268.6,258.4,225.7z"/>
		</g>
	</g>
	<g>
		<circle class="st0" cx="102.6" cy="97.9" r="45.3"/>
		<path class="st0" d="M181.4,234.8c0-33.9-41-105.4-78.8-105.4s-78.8,70.3-78.8,105.4C23.8,285,181.4,285,181.4,234.8z"/>
		<g>
			<circle class="st1" cx="102.6" cy="97.9" r="35.3"/>
			<path class="st1" d="M169.9,229.8c0-28.9-35.1-90-67.3-90s-67.3,60-67.3,90C35.3,272.7,169.9,272.7,169.9,229.8z"/>
		</g>
	</g>
	<g>
		<circle class="st0" cx="265.4" cy="197.8" r="45.3"/>
		<path class="st0" d="M344.2,334.7c0-33.9-41-105.4-78.8-105.4s-78.8,70.3-78.8,105.4C186.6,384.9,344.2,384.9,344.2,334.7z"/>
		<g>
			<circle class="st2" cx="265.4" cy="197.8" r="35.3"/>
			<path class="st2" d="M332.7,329.7c0-28.9-35.1-90-67.3-90s-67.3,60-67.3,90C198.1,372.6,332.7,372.6,332.7,329.7z"/>
		</g>
	</g>
	<g>
		<circle class="st0" cx="394" cy="174.7" r="45.3"/>
		<path class="st0" d="M472.8,311.5c0-33.9-41-105.4-78.8-105.4s-78.8,70.3-78.8,105.4C315.2,361.7,472.8,361.7,472.8,311.5z"/>
		<g>
			<circle class="st2" cx="394" cy="174.7" r="35.3"/>
			<path class="st2" d="M461.3,306.6c0-28.9-35.1-90-67.3-90s-67.3,60-67.3,90C326.7,349.5,461.3,349.5,461.3,306.6z"/>
		</g>
	</g>
	<g>
		<circle class="st0" cx="137.8" cy="222" r="45.3"/>
		<path class="st0" d="M216.6,358.9c0-33.9-41-105.4-78.8-105.4S59,323.7,59,358.9C59,409.1,216.6,409.1,216.6,358.9z"/>
		<g>
			<circle class="st2" cx="137.8" cy="222" r="35.3"/>
			<path class="st2" d="M205.1,353.9c0-28.9-35.1-90-67.3-90s-67.3,60-67.3,90C70.5,396.8,205.1,396.8,205.1,353.9z"/>
		</g>
	</g>
	<g>
		<circle class="st0" cx="344.2" cy="285" r="45.3"/>
		<path class="st0" d="M423,421.8c0-33.9-41-105.4-78.8-105.4s-78.8,70.3-78.8,105.4C265.4,472.1,423,472.1,423,421.8z"/>
		<g>
			<circle class="st1" cx="344.2" cy="285" r="35.3"/>
			<path class="st1" d="M411.5,416.9c0-28.9-35.1-90-67.3-90s-67.3,60-67.3,90C276.9,459.8,411.5,459.8,411.5,416.9z"/>
		</g>
	</g>
	<g>
		<circle class="st0" cx="207.6" cy="275.5" r="45.3"/>
		<path class="st0" d="M286.4,412.4c0-33.9-41-105.4-78.8-105.4s-78.8,70.3-78.8,105.4C128.8,462.6,286.4,462.6,286.4,412.4z"/>
		<g>
			<circle class="st2" cx="207.6" cy="275.5" r="35.3"/>
			<path class="st2" d="M274.9,407.4c0-28.9-35.1-90-67.3-90s-67.3,60-67.3,90C140.3,450.3,274.9,450.3,274.9,407.4z"/>
		</g>
	</g>
</g>
</svg>
