<?xml version="1.0" encoding="utf-8"?>
<!-- Generator: Adobe Illustrator 19.0.0, SVG Export Plug-In . SVG Version: 6.00 Build 0)  -->
<svg version="1.1" id="Layer_1" xmlns="http://www.w3.org/2000/svg" xmlns:xlink="http://www.w3.org/1999/xlink" x="0px" y="0px"
	 viewBox="-139 51 512 512" style="enable-background:new -139 51 512 512;" xml:space="preserve">
<style type="text/css">
	.st0{fill:#FFFFFF;}
</style>
<path class="st0" d="M324.6,272h-49c-3.7,0-6.6,3-6.6,6.6s3,6.6,6.6,6.6h49c3.7,0,6.6-3,6.6-6.6S328.3,272,324.6,272z"/>
<path class="st0" d="M76.6,214.4h248c3.7,0,6.6-3,6.6-6.6c0-3.7-3-6.6-6.6-6.6h-64.2v-57.3c14,4.3,23,6.9,28.8,6.9
	c19.3,0,35-15.7,35-35c0-19.3-15.7-35-35-35c-6.1,0-15.8,2.9-31.2,7.6c-14.5,4.4-31,9.5-39.7,9.5c-8.7,0-25.1-5-39.7-9.5
	c-15.4-4.7-25.1-7.6-31.2-7.6c-19.3,0-35,15.7-35,35c0,19.3,15.7,35,35,35c5.8,0,14.8-2.6,28.8-6.9v57.3H76.6
	c-42.7,0-77.5,34.8-77.5,77.5v50h-0.4c-3.7,0-6.6,3-6.6,6.6v21.3c0,3.7,3,6.6,6.6,6.6h99.2c3.7,0,6.6-3,6.6-6.6v-21.3
	c0-3.7-3-6.6-6.6-6.6h-0.4v-43.4H243c3.7,0,6.6-3,6.6-6.6s-3-6.6-6.6-6.6H90.8c-3.7,0-6.6,3-6.6,6.6v50H12.4v-50
	C12.4,243.2,41.2,214.4,76.6,214.4z M147.4,137.4c-12,0-21.7-9.7-21.7-21.7S135.5,94,147.4,94c4.4,0,16.6,3.7,27.3,7
	c16.2,4.9,32.9,10.1,43.6,10.1c10.7,0,27.4-5.1,43.6-10.1c10.7-3.3,22.9-7,27.3-7c12,0,21.7,9.7,21.7,21.7s-9.7,21.7-21.7,21.7
	c-4.4,0-16.6-3.7-27.3-7c-16.2-4.9-32.9-10.1-43.6-10.1c-10.7,0-27.4,5.1-43.6,10.1C164,133.6,151.8,137.4,147.4,137.4z
	 M189.5,139.8c11.2-3.3,22.2-6.2,28.8-6.2c6.5,0,17.5,2.9,28.8,6.2v61.4h-57.6V139.8z M90.8,342h0.4v8H5.3v-8H90.8z"/>
<path class="st0" d="M48.2,385.4c-1.9,0-3.8,0.8-5,2.3C38,393.8-8,448.1-8,477.1c0,31,25.2,56.3,56.3,56.3s56.3-25.2,56.3-56.3
	c0-29-46-83.3-51.2-89.4C52,386.2,50.2,385.4,48.2,385.4z M48.2,520c-23.7,0-43-19.3-43-43c0-18.2,27.5-55.7,43-74.7
	c15.4,18.9,43,56.5,43,74.7C91.2,500.8,71.9,520,48.2,520z"/>
<path class="st0" d="M158,414.2c-2.6-2.6-6.8-2.6-9.4,0c-2.6,2.6-2.6,6.8,0,9.4c19.5,19.5,19.5,51.3,0,70.8c-2.4,2.4-2.6,6.4-0.4,9
	c2.5,2.9,7,3.1,9.7,0.4C182.7,479,182.7,438.9,158,414.2z"/>
<path class="st0" d="M169.2,393.6c-2.6,2.6-2.6,6.8,0,9.4c14.9,14.9,23.2,34.8,23.2,56s-8.2,41-23.2,56c-2.4,2.4-2.6,6.4-0.4,9
	c2.5,2.9,7,3.1,9.7,0.4c17.5-17.5,27.1-40.7,27.1-65.3s-9.6-47.9-27.1-65.3C176,391,171.8,391,169.2,393.6z"/>
<path class="st0" d="M138,434.2c-2.6-2.6-6.8-2.6-9.4,0c-2.6,2.6-2.6,6.8,0,9.4c4.1,4.1,6.4,9.5,6.4,15.3c0,5.8-2.3,11.2-6.4,15.3
	c-2.4,2.4-2.6,6.4-0.4,9c2.5,2.9,7,3.1,9.7,0.4c6.6-6.6,10.2-15.4,10.2-24.7S144.6,440.8,138,434.2z"/>
<path class="st0" d="M-66.8,459c0-13.4,5.2-25.9,14.7-35.4c2.6-2.6,2.6-6.8,0-9.4c-2.6-2.6-6.8-2.6-9.4,0
	c-12,12-18.5,27.9-18.5,44.8c0,16.9,6.6,32.8,18.5,44.8c2.7,2.7,7.3,2.5,9.7-0.4c2.2-2.6,2.1-6.6-0.4-9
	C-61.6,484.9-66.8,472.3-66.8,459z"/>
<path class="st0" d="M-72.7,403c2.6-2.6,2.6-6.8,0-9.4c-2.6-2.6-6.8-2.6-9.4,0c-36,36-36,94.7,0,130.7c2.7,2.7,7.3,2.5,9.7-0.4
	c2.2-2.6,2.1-6.6-0.4-9C-103.6,484.1-103.6,433.9-72.7,403z"/>
<path class="st0" d="M-38.5,459c0-5.8,2.3-11.2,6.4-15.3c2.6-2.6,2.6-6.8,0-9.4c-2.6-2.6-6.8-2.6-9.4,0
	c-6.6,6.6-10.3,15.4-10.3,24.7c0,9.3,3.6,18.1,10.3,24.7c2.7,2.7,7.3,2.5,9.7-0.4c2.2-2.6,2.1-6.6-0.4-9
	C-36.2,470.2-38.5,464.7-38.5,459z"/>
</svg>
