<?xml version="1.0" encoding="utf-8"?>
<!-- Generator: Adobe Illustrator 19.0.0, SVG Export Plug-In . SVG Version: 6.00 Build 0)  -->
<svg version="1.1" id="Capa_1" xmlns="http://www.w3.org/2000/svg" xmlns:xlink="http://www.w3.org/1999/xlink" x="0px" y="0px"
	 viewBox="-155 66.9 480.1 480.1" style="enable-background:new -155 66.9 480.1 480.1;" xml:space="preserve">
<style type="text/css">
	.st0{fill:#FFFFFF;}
</style>
	<g class="st0">
		<path d="M240,205.5c-4.9,0-9.8,0.8-14.6,2.2c0.4-3.5,0.7-7.1,0.7-10.7c-0.9-52.3-44-94-96.3-93.1
			c-38.2,0.6-72.2,24.1-86.4,59.6c-27.4-17-63.3-8.5-80.3,18.8c-5.5,8.9-8.5,19.2-8.7,29.6c-7.4-4.3-15.7-6.5-24.2-6.5
			c-26.2,0-47.4,21.2-47.4,47.4s21.2,47.4,47.4,47.4c3.7,0,6.8-3,6.8-6.8s-3-6.8-6.8-6.8c-18.7-0.3-33.6-15.7-33.3-34.4
			c0.3-18.7,15.7-33.6,34.4-33.3c11.4,0.2,21.9,6.1,28,15.7c2,3.1,6.2,4,9.4,2c2.7-1.8,3.8-5.2,2.6-8.2c-2.1-5.1-3.2-10.6-3.3-16.2
			c0.3-24.5,20.3-44.2,44.9-44c10.9,0,21.5,4,29.7,11.3c2.8,2.5,7.1,2.2,9.5-0.7c0.7-0.8,1.2-1.7,1.4-2.6
			c12.4-43.1,57.3-68,100.4-55.6c34.2,9.8,58,40.8,58.7,76.4c0,7.1-1,14.2-2.9,21c-1,3.6,1.1,7.3,4.7,8.3c1.9,0.5,4,0.2,5.7-1
			c5.9-4.1,12.8-6.3,20-6.3c18.7,0,33.8,15.1,33.8,33.8s-15.1,33.8-33.8,33.8c-3.7,0-6.8,3-6.8,6.8s3,6.8,6.8,6.8
			c26.2,0,47.4-21.2,47.4-47.4C287.4,226.7,266.2,205.5,240,205.5z"/>
		<path d="M200.1,361.1H-30c-11.2,0-20.3,9.1-20.3,20.3v27.1c0,11.2,9.1,20.3,20.3,20.3h230.1
			c11.2,0,20.3-9.1,20.3-20.3v-27.1C220.4,370.2,211.3,361.1,200.1,361.1z M206.8,408.5c0,3.7-3,6.8-6.8,6.8H-30
			c-3.7,0-6.8-3-6.8-6.8v-27.1c0-3.7,3-6.8,6.8-6.8h230.1c3.7,0,6.8,3,6.8,6.8V408.5z"/>
		<path d="M181.3,381.8c-7.2,0-13,5.9-13,13.1c0,7.3,5.9,13.1,13.2,13.1c7.2,0,13.1-6,13-13.2
			C194.5,387.6,188.6,381.8,181.3,381.8z M181.5,395.4c-0.2,0-0.3-0.2-0.3-0.4l0.3-0.4V395.4z"/>
		<path d="M110.8,388.2H-17.8c-3.7,0-6.8,3-6.8,6.8s3,6.8,6.8,6.8h128.6c3.7,0,6.8-3,6.8-6.8S114.5,388.2,110.8,388.2z"/>
		<path d="M152.5,388.2h-18c-3.7,0-6.8,3-6.8,6.8s3,6.8,6.8,6.8h18c3.7,0,6.8-3,6.8-6.8S156.3,388.2,152.5,388.2z"/>
		<path d="M200.1,442.3H-30c-11.2,0-20.3,9.1-20.3,20.3v27.1c0,11.2,9.1,20.3,20.3,20.3h230.1
			c11.2,0,20.3-9.1,20.3-20.3v-27.1C220.4,451.4,211.3,442.3,200.1,442.3z M206.8,489.7c0,3.7-3,6.8-6.8,6.8H-30
			c-3.7,0-6.8-3-6.8-6.8v-27.1c0-3.7,3-6.8,6.8-6.8h230.1c3.7,0,6.8,3,6.8,6.8V489.7z"/>
		<path d="M181.3,463.1c-7.2,0-13,5.9-13,13.1c0,7.3,5.9,13.1,13.2,13.1c7.2,0,13.1-6,13-13.2
			C194.5,468.8,188.6,463,181.3,463.1z M181.5,476.6c-0.2,0-0.3-0.2-0.3-0.4l0.3-0.4V476.6z"/>
		<path d="M110.8,469.4H-17.8c-3.7,0-6.8,3-6.8,6.8s3,6.8,6.8,6.8h128.6c3.7,0,6.8-3,6.8-6.8S114.5,469.4,110.8,469.4z"/>
		<path d="M152.5,469.4h-18c-3.7,0-6.8,3-6.8,6.8s3,6.8,6.8,6.8h18c3.7,0,6.8-3,6.8-6.8S156.3,469.4,152.5,469.4z"/>
		<path d="M200.1,279.9H-30c-11.2,0-20.3,9.1-20.3,20.3v27.1c0,11.2,9.1,20.3,20.3,20.3h230.1
			c11.2,0,20.3-9.1,20.3-20.3v-27.1C220.4,289,211.3,279.9,200.1,279.9z M206.8,327.3c0,3.7-3,6.8-6.8,6.8H-30c-3.7,0-6.8-3-6.8-6.8
			v-27.1c0-3.7,3-6.8,6.8-6.8h230.1c3.7,0,6.8,3,6.8,6.8V327.3z"/>
		<path d="M192.4,311.9c-1.3-7.2-8.2-12-15.4-10.7c-3.4,0.6-6.4,2.5-8.4,5.4c-2,2.8-2.8,6.4-2.2,9.8
			c1.1,6.3,6.6,10.9,13,10.9c0.7,0,1.5-0.1,2.2-0.2c3.5-0.6,6.6-2.5,8.6-5.4C192.2,318.9,193,315.3,192.4,311.9z M179.1,314.3
			l0.3-0.5l0,0.8C179.1,314.6,179.1,314.4,179.1,314.3z"/>
		<path d="M109.4,307H-19.2c-3.7,0-6.8,3-6.8,6.8s3,6.8,6.8,6.8h128.6c3.7,0,6.8-3,6.8-6.8S113.1,307,109.4,307z"/>
		<path d="M148.2,307h-18c-3.7,0-6.8,3-6.8,6.8s3,6.8,6.8,6.8h18c3.7,0,6.8-3,6.8-6.8S152,307,148.2,307z"/>
		<path  d="M56,214.2l-20.3-20.3c-2.6-2.6-6.9-2.6-9.6,0L5.8,214.2c-2.6,2.7-2.5,7,0.2,9.6c2.6,2.5,6.8,2.5,9.4,0
			l8.7-8.7v44.6c0,3.7,3,6.8,6.8,6.8s6.8-3,6.8-6.8v-44.6l8.7,8.7c2.7,2.6,7,2.5,9.6-0.2C58.5,221,58.5,216.9,56,214.2z"/>
		<path d="M164.1,234.5c-2.6-2.5-6.8-2.5-9.4,0l-8.7,8.7v-44.6c0-3.7-3-6.8-6.8-6.8s-6.8,3-6.8,6.8v44.6l-8.7-8.7
			c-2.7-2.6-7-2.5-9.6,0.2c-2.5,2.6-2.5,6.8,0,9.4l20.3,20.3c2.6,2.6,6.9,2.6,9.6,0l20.3-20.3C166.9,241.4,166.8,237.1,164.1,234.5z"/>
	</g>
</svg>
