<?xml version="1.0" encoding="utf-8"?>
<!-- Generator: Adobe Illustrator 19.0.0, SVG Export Plug-In . SVG Version: 6.00 Build 0)  -->
<svg version="1.1" id="Layer_1" xmlns="http://www.w3.org/2000/svg" xmlns:xlink="http://www.w3.org/1999/xlink" x="0px" y="0px"
	 viewBox="-139 51 512 512" style="enable-background:new -139 51 512 512;" xml:space="preserve">
<style type="text/css">
	.st0{fill:#FFFFFF;}
</style>
<g  id="weatherStation">
	<path class="st0" d="M334,123.9c0,4.7-3.8,8.5-8.5,8.5s-8.5-3.8-8.5-8.5s3.8-8.5,8.5-8.5S334,119.2,334,123.9z"/>
	<path class="st0" d="M334,276.5c0,4.7-3.8,8.5-8.5,8.5s-8.5-3.8-8.5-8.5s3.8-8.5,8.5-8.5S334,271.8,334,276.5z"/>
	<path class="st0" d="M184.8,276.5c0,4.7,3.8,8.5,8.5,8.5h81.4c4.7,0,8.5-3.8,8.5-8.5s-3.8-8.5-8.5-8.5h-81.4
		C188.6,268,184.8,271.8,184.8,276.5z"/>
	<path class="st0" d="M193.3,132.4h81.4c4.7,0,8.5-3.8,8.5-8.5s-3.8-8.5-8.5-8.5h-81.4c-4.7,0-8.5,3.8-8.5,8.5
		S188.6,132.4,193.3,132.4z"/>
	<path class="st0" d="M325.5,191.7h-81.4c-4.7,0-8.5,3.8-8.5,8.5s3.8,8.5,8.5,8.5h81.4c4.7,0,8.5-3.8,8.5-8.5
		S330.2,191.7,325.5,191.7z"/>
	<path class="st0" d="M125.5,515.5c0,4.7-3.8,8.5-8.5,8.5s-8.5-3.8-8.5-8.5c0-4.7,3.8-8.5,8.5-8.5S125.5,510.8,125.5,515.5z"/>
	<path class="st0" d="M325.5,473.1h-68.7c-39.2,0-78-12.9-109.3-36.4C113.3,411,70.8,396.9,28,396.9h-55.1V237.4L38,259.1
		c1.3,0.4,2.7,0.5,4.1,0.3c0,0,0,0,0,0L194.7,234c4.1-0.7,7.1-4.2,7.1-8.4v-50.9c0-4.1-3-7.7-7.1-8.4L42.2,141
		c-1.4-0.2-2.9-0.1-4.2,0.3L-27.1,163V107h17c4.7,0,8.5-3.8,8.5-8.5S-5.5,90-10.1,90H-61c-4.7,0-8.5,3.8-8.5,8.5s3.8,8.5,8.5,8.5h17
		v289.9h-47.5c-4.7,0-8.5,3.8-8.5,8.5v110.2c0,4.7,3.8,8.5,8.5,8.5H78.9c4.7,0,8.5-3.8,8.5-8.5c0-4.7-3.8-8.5-8.5-8.5H-83v-93.2h39
		v67.8c0,4.7,3.8,8.5,8.5,8.5s8.5-3.8,8.5-8.5v-67.8H28c39.2,0,78,12.9,109.3,36.4c34.3,25.7,76.7,39.8,119.5,39.8H317v17H155.1
		c-4.7,0-8.5,3.8-8.5,8.5c0,4.7,3.8,8.5,8.5,8.5h170.4c4.7,0,8.5-3.8,8.5-8.5v-33.9C334,476.9,330.2,473.1,325.5,473.1z M83.1,235.4
		L49.2,241v-81.7l33.9,5.7V235.4z M100,167.8l33.9,5.7v53.4l-33.9,5.7V167.8z M184.8,218.4l-33.9,5.7v-47.8l33.9,5.7V218.4z
		 M32.2,161.1v78.2l-59.3-19.8v-38.6L32.2,161.1z"/>
</g>
</svg>
