<?xml version="1.0" encoding="utf-8"?>
<!-- Generator: Adobe Illustrator 19.0.0, SVG Export Plug-In . SVG Version: 6.00 Build 0)  -->
<svg version="1.1" id="Capa_1" xmlns="http://www.w3.org/2000/svg" xmlns:xlink="http://www.w3.org/1999/xlink" x="0px" y="0px"
	 viewBox="-139 51 512 512" style="enable-background:new -139 51 512 512;" xml:space="preserve">
<style type="text/css">
	.st0{fill:#FFFFFF;}
</style>
<g class="st0">
	<path d="M344,314.6v-30.3c0-20.9-16.9-37.8-37.8-37.8h-68.3c-1.8-41.2-18.2-80.5-46.3-110.7c-0.2-0.3-0.4-0.5-0.6-0.8
		c-0.1-0.1-0.3-0.2-0.5-0.3C157.7,99.8,111.9,80,64,80s-93.7,19.8-126.5,54.7c-0.2,0.1-0.3,0.2-0.5,0.3c-0.2,0.3-0.4,0.5-0.6,0.8
		c-62.1,66.8-62,170.2,0.2,236.9c0.1,0.1,0.3,0.2,0.4,0.4c29.1,31.1,68.8,50.4,111.2,54c2.3,3.3,5.2,6.2,8.4,8.5
		c-9.6,7.1-15.3,18.3-15.4,30.3v30.3c0,20.9,16.9,37.8,37.8,37.8h227c20.9,0,37.8-16.9,37.8-37.8v-30.3c0-12-5.7-23.2-15.4-30.3
		c9.6-7.1,15.3-18.3,15.4-30.3v-30.3c0-12-5.7-23.2-15.4-30.3C338.3,337.8,344,326.5,344,314.6z M222.5,246.5h-60.3
		c-0.4-23.5-3.7-46.9-9.8-69.7c11.9-7,23-15.4,32.9-25.1C207.9,178.4,221,211.7,222.5,246.5z M175.1,140.6
		c-8.3,8.1-17.4,15.2-27.2,21.3c-6.9-21.8-18.6-41.9-34.1-58.7C136.8,110.9,157.8,123.7,175.1,140.6z M71.6,95.9
		c25.9,4.7,48.8,33.3,62.4,73.7c-19.5,9.6-40.7,15-62.4,16.1L71.6,95.9L71.6,95.9z M71.6,200.9c23.1-1,45.9-6.7,66.8-16.6
		c5.3,20.3,8.2,41.2,8.7,62.2H71.6V200.9z M56.5,95.9v89.8c-21.7-1.1-42.9-6.5-62.4-16.1C7.7,129.2,30.5,100.6,56.5,95.9z
		 M-19,246.5c0.5-21,3.4-41.9,8.7-62.2c20.9,9.9,43.7,15.6,66.8,16.6v45.6L-19,246.5L-19,246.5z M49.1,261.6
		c-5,6.5-7.7,14.5-7.8,22.7v24.2c-18,2.3-35.4,7.4-51.8,15.3c-5.2-20.3-8-41.2-8.5-62.2H49.1z M14.3,103.2
		c-15.5,16.8-27.2,36.9-34.1,58.7c-9.8-6.1-19-13.2-27.2-21.3C-29.8,123.7-8.8,110.9,14.3,103.2z M-57.4,151.7
		c9.9,9.6,21,18,32.9,25.1c-6.1,22.7-9.4,46.1-9.8,69.7h-60.3C-92.9,211.7-79.8,178.4-57.4,151.7z M-94.5,261.6h60.4
		c0.5,23.5,3.8,46.9,9.9,69.6c-12,7-23.2,15.5-33.1,25.3C-79.8,329.8-92.9,296.4-94.5,261.6z M-47,367.5
		c8.3-8.1,17.4-15.3,27.3-21.4c7.1,21.9,18.9,42,34.6,58.9C-8.4,397.5-29.6,384.6-47,367.5z M41.3,375.1v30.3
		c0,0.5,0.1,0.9,0.1,1.4c-19.4-10.7-36.5-34.9-47.7-68c15.3-7.6,31.8-12.7,48.8-14.9c2.1,8.3,7,15.7,13.9,20.9v0.4
		C47,352.1,41.4,363.3,41.3,375.1z M328.9,465.9v30.3c0,12.5-10.2,22.7-22.7,22.7h-227c-12.5,0-22.7-10.2-22.7-22.7v-30.3
		c0-12.5,10.2-22.7,22.7-22.7h227C318.7,443.2,328.9,453.4,328.9,465.9z M328.9,375.1v30.3c0,12.5-10.2,22.7-22.7,22.7h-227
		c-12.5,0-22.7-10.2-22.7-22.7v-30.3c0-12.5,10.2-22.7,22.7-22.7h227C318.7,352.4,328.9,362.6,328.9,375.1z M328.9,314.6
		c0,12.5-10.2,22.7-22.7,22.7h-227c-12.5,0-22.7-10.2-22.7-22.7v-30.3c0-12.5,10.2-22.7,22.7-22.7h227c12.5,0,22.7,10.2,22.7,22.7
		V314.6z"/>
	<path d="M283.5,291.9h-15.1c-4.2,0-7.6,3.4-7.6,7.6c0,4.2,3.4,7.6,7.6,7.6h15.1c4.2,0,7.6-3.4,7.6-7.6S287.6,291.9,283.5,291.9z"/>
	<path d="M238.1,291.9h-15.1c-4.2,0-7.6,3.4-7.6,7.6c0,4.2,3.4,7.6,7.6,7.6h15.1c4.2,0,7.6-3.4,7.6-7.6S242.2,291.9,238.1,291.9z"/>
	<path d="M109.4,276.7c-12.5,0-22.7,10.2-22.7,22.7c0,12.5,10.2,22.7,22.7,22.7s22.7-10.2,22.7-22.7
		C132.1,286.9,122,276.7,109.4,276.7z M109.4,307c-4.2,0-7.6-3.4-7.6-7.6s3.4-7.6,7.6-7.6c4.2,0,7.6,3.4,7.6,7.6
		S113.6,307,109.4,307z"/>
	<path d="M283.5,382.7h-15.1c-4.2,0-7.6,3.4-7.6,7.6s3.4,7.6,7.6,7.6h15.1c4.2,0,7.6-3.4,7.6-7.6S287.6,382.7,283.5,382.7z"/>
	<path d="M238.1,382.7h-15.1c-4.2,0-7.6,3.4-7.6,7.6s3.4,7.6,7.6,7.6h15.1c4.2,0,7.6-3.4,7.6-7.6S242.2,382.7,238.1,382.7z"/>
	<path d="M109.4,367.5c-12.5,0-22.7,10.2-22.7,22.7s10.2,22.7,22.7,22.7s22.7-10.2,22.7-22.7S122,367.5,109.4,367.5z M109.4,397.8
		c-4.2,0-7.6-3.4-7.6-7.6s3.4-7.6,7.6-7.6c4.2,0,7.6,3.4,7.6,7.6S113.6,397.8,109.4,397.8z"/>
	<path d="M283.5,473.5h-15.1c-4.2,0-7.6,3.4-7.6,7.6c0,4.2,3.4,7.6,7.6,7.6h15.1c4.2,0,7.6-3.4,7.6-7.6
		C291,476.9,287.6,473.5,283.5,473.5z"/>
	<path d="M238.1,473.5h-15.1c-4.2,0-7.6,3.4-7.6,7.6c0,4.2,3.4,7.6,7.6,7.6h15.1c4.2,0,7.6-3.4,7.6-7.6
		C245.6,476.9,242.2,473.5,238.1,473.5z"/>
	<path d="M109.4,458.3c-12.5,0-22.7,10.2-22.7,22.7s10.2,22.7,22.7,22.7s22.7-10.2,22.7-22.7C132.1,468.5,122,458.3,109.4,458.3z
		 M109.4,488.6c-4.2,0-7.6-3.4-7.6-7.6c0-4.2,3.4-7.6,7.6-7.6c4.2,0,7.6,3.4,7.6,7.6C117,485.2,113.6,488.6,109.4,488.6z"/>
</g>
</svg>
